<?xml version="1.0" encoding="UTF-8" standalone="no"?>
<svg
   version="1.1"
   viewBox="0.0 0.0 600.0 371.0"
   fill="none"
   stroke="none"
   stroke-linecap="square"
   stroke-miterlimit="10"
   width="600"
   height="371"
   id="svg22"
   sodipodi:docname="leadingup.svg"
   inkscape:version="1.3.2 (091e20e, 2023-11-25)"
   xmlns:inkscape="http://www.inkscape.org/namespaces/inkscape"
   xmlns:sodipodi="http://sodipodi.sourceforge.net/DTD/sodipodi-0.dtd"
   xmlns="http://www.w3.org/2000/svg"
   xmlns:svg="http://www.w3.org/2000/svg">
  <defs
     id="defs22" />
  <sodipodi:namedview
     id="namedview22"
     pagecolor="#505050"
     bordercolor="#ffffff"
     borderopacity="1"
     inkscape:showpageshadow="0"
     inkscape:pageopacity="0"
     inkscape:pagecheckerboard="1"
     inkscape:deskcolor="#505050"
     inkscape:zoom="1.4383333"
     inkscape:cx="299.30476"
     inkscape:cy="130.01159"
     inkscape:window-width="1920"
     inkscape:window-height="967"
     inkscape:window-x="1920"
     inkscape:window-y="91"
     inkscape:window-maximized="1"
     inkscape:current-layer="svg22" />
  <path
     fill="#4285f4"
     d="M300.0 54.916668C372.82346 54.916668 434.94217 107.63447 446.78598 179.48834C458.6298 251.34222 416.71667 321.20776 347.7457 344.58L300.0 203.68333Z"
     fill-rule="nonzero"
     id="path2"
     style="fill-rule:nonzero;fill:#4285f4;fill-opacity:1" />
  <path
     fill="#34a853"
     d="M285.06952 55.667786C290.0306 55.16736 295.01373 54.916668 300.0 54.916668L300.0 203.68333Z"
     fill-rule="nonzero"
     id="path3" />
  <path
     fill="#fbbc04"
     d="M263.00323 59.590446C270.24957 57.729904 277.62592 56.41863 285.06952 55.667786L300.0 203.68333Z"
     fill-rule="nonzero"
     id="path4" />
  <path
     fill="#ea4335"
     d="M347.7457 344.58C296.1409 362.06732 239.10487 349.94394 199.0743 312.9789C159.0437 276.01385 142.42415 220.12221 155.7534 167.29047C169.08266 114.45872 210.22778 73.14088 263.00323 59.590446L300.0 203.68333Z"
     fill-rule="nonzero"
     id="path5" />
  <path
     stroke="#e3e2e4"
     stroke-width="1.0"
     stroke-linejoin="round"
     stroke-linecap="round"
     d="M300.0 203.68333L300.0 54.916668C372.82346 54.916668 434.94217 107.63447 446.78598 179.48834C458.6298 251.34222 416.71667 321.20776 347.7457 344.58"
     fill-rule="nonzero"
     id="path6" />
  <path
     stroke="#e3e2e4"
     stroke-width="1.0"
     stroke-linejoin="round"
     stroke-linecap="round"
     d="M300.0 203.68333L347.7457 344.58C296.1409 362.06732 239.10487 349.94394 199.0743 312.9789C159.0437 276.01385 142.42415 220.12221 155.7534 167.29047C169.08266 114.45872 210.22778 73.14088 263.00323 59.590446"
     fill-rule="nonzero"
     id="path7" />
  <path
     stroke="#e3e2e4"
     stroke-width="1.0"
     stroke-linejoin="round"
     stroke-linecap="round"
     d="M300.0 203.68333L263.00323 59.590446C270.24957 57.729904 277.62592 56.41863 285.06952 55.667786"
     fill-rule="nonzero"
     id="path8" />
  <path
     stroke="#e3e2e4"
     stroke-width="1.0"
     stroke-linejoin="round"
     stroke-linecap="round"
     d="M300.0 203.68333L285.06952 55.667786C290.0306 55.16736 295.01373 54.916668 300.0 54.916668"
     fill-rule="nonzero"
     id="path9" />
  <path
     fill="#ffffff"
     d="M19.26875 234.77713L20.70625 234.65213Q20.8 235.5115 21.175 236.074Q21.55 236.62088 22.33125 236.96463Q23.1125 237.29276 24.08125 237.29276Q24.95625 237.29276 25.6125 237.04276Q26.284374 236.77713 26.596874 236.33963Q26.925 235.8865 26.925 235.35526Q26.925 234.80838 26.6125 234.41776Q26.3 234.0115 25.58125 233.73026Q25.128124 233.55838 23.55 233.18338Q21.971874 232.79276 21.33125 232.46463Q20.51875 232.02713 20.1125 231.40213Q19.70625 230.7615 19.70625 229.96463Q19.70625 229.10526 20.190624 228.35526Q20.690624 227.58963 21.628124 227.199Q22.58125 226.80838 23.7375 226.80838Q25.01875 226.80838 25.9875 227.23026Q26.95625 227.6365 27.471874 228.43338Q28.003124 229.23026 28.05 230.23026L26.596874 230.33963Q26.471874 229.2615 25.8 228.71463Q25.128124 228.15213 23.8 228.15213Q22.425 228.15213 21.8 228.65213Q21.175 229.15213 21.175 229.87088Q21.175 230.48026 21.6125 230.8865Q22.05 231.27713 23.89375 231.699Q25.753124 232.12088 26.440624 232.43338Q27.440624 232.8865 27.909374 233.60526Q28.39375 234.30838 28.39375 235.23026Q28.39375 236.1365 27.8625 236.949Q27.346874 237.7615 26.3625 238.21463Q25.378124 238.66776 24.159374 238.66776Q22.596874 238.66776 21.55 238.21463Q20.503124 237.74588 19.89375 236.83963Q19.3 235.93338 19.26875 234.77713ZM33.675 237.199L33.878124 238.449Q33.284374 238.574 32.815624 238.574Q32.05 238.574 31.628124 238.33963Q31.20625 238.08963 31.034374 237.699Q30.8625 237.29276 30.8625 236.02713L30.8625 231.2615L29.83125 231.2615L29.83125 230.16776L30.8625 230.16776L30.8625 228.10526L32.26875 227.2615L32.26875 230.16776L33.675 230.16776L33.675 231.2615L32.26875 231.2615L32.26875 236.10526Q32.26875 236.71463 32.33125 236.8865Q32.409374 237.05838 32.58125 237.16776Q32.753124 237.2615 33.065624 237.2615Q33.3 237.2615 33.675 237.199ZM34.596874 238.46463L34.596874 230.16776L35.8625 230.16776L35.8625 231.41776Q36.346874 230.54276 36.753124 230.2615Q37.159374 229.98026 37.659374 229.98026Q38.3625 229.98026 39.096874 230.43338L38.6125 231.73026Q38.096874 231.43338 37.58125 231.43338Q37.128124 231.43338 36.753124 231.71463Q36.39375 231.98026 36.2375 232.48026Q36.003124 233.23026 36.003124 234.12088L36.003124 238.46463L34.596874 238.46463ZM45.284374 235.79276L46.7375 235.96463Q46.39375 237.24588 45.45625 237.949Q44.534374 238.65213 43.096874 238.65213Q41.26875 238.65213 40.20625 237.52713Q39.14375 236.40213 39.14375 234.3865Q39.14375 232.29276 40.221874 231.1365Q41.3 229.98026 43.01875 229.98026Q44.675 229.98026 45.721874 231.12088Q46.784374 232.24588 46.784374 234.29276Q46.784374 234.41776 46.784374 234.66776L40.596874 234.66776Q40.675 236.04276 41.3625 236.77713Q42.065624 237.49588 43.096874 237.49588Q43.878124 237.49588 44.425 237.08963Q44.971874 236.68338 45.284374 235.79276ZM40.675 233.5115L45.3 233.5115Q45.20625 232.46463 44.76875 231.949Q44.096874 231.1365 43.034374 231.1365Q42.065624 231.1365 41.39375 231.79276Q40.7375 232.43338 40.675 233.5115ZM48.05 235.98026L49.440624 235.7615Q49.55 236.60526 50.08125 237.05838Q50.628124 237.49588 51.58125 237.49588Q52.55 237.49588 53.01875 237.10526Q53.4875 236.699 53.4875 236.16776Q53.4875 235.699 53.08125 235.41776Q52.784374 235.23026 51.64375 234.949Q50.096874 234.55838 49.4875 234.27713Q48.89375 233.98026 48.58125 233.48026Q48.284374 232.98026 48.284374 232.37088Q48.284374 231.80838 48.534374 231.33963Q48.784374 230.87088 49.221874 230.55838Q49.55 230.30838 50.1125 230.15213Q50.690624 229.98026 51.33125 229.98026Q52.315624 229.98026 53.05 230.2615Q53.784374 230.54276 54.128124 231.02713Q54.4875 231.49588 54.628124 232.30838L53.253124 232.49588Q53.159374 231.85526 52.70625 231.49588Q52.253124 231.1365 51.440624 231.1365Q50.471874 231.1365 50.05 231.46463Q49.64375 231.77713 49.64375 232.199Q49.64375 232.48026 49.815624 232.699Q49.9875 232.91776 50.346874 233.074Q50.565624 233.15213 51.596874 233.43338Q53.08125 233.824 53.675 234.08963Q54.26875 234.33963 54.596874 234.824Q54.940624 235.30838 54.940624 236.02713Q54.940624 236.73026 54.51875 237.35526Q54.1125 237.96463 53.33125 238.30838Q52.565624 238.65213 51.596874 238.65213Q49.971874 238.65213 49.128124 237.98026Q48.284374 237.30838 48.05 235.98026ZM56.05 235.98026L57.440624 235.7615Q57.55 236.60526 58.08125 237.05838Q58.628124 237.49588 59.58125 237.49588Q60.55 237.49588 61.01875 237.10526Q61.4875 236.699 61.4875 236.16776Q61.4875 235.699 61.08125 235.41776Q60.784374 235.23026 59.64375 234.949Q58.096874 234.55838 57.4875 234.27713Q56.89375 233.98026 56.58125 233.48026Q56.284374 232.98026 56.284374 232.37088Q56.284374 231.80838 56.534374 231.33963Q56.784374 230.87088 57.221874 230.55838Q57.55 230.30838 58.1125 230.15213Q58.690624 229.98026 59.33125 229.98026Q60.315624 229.98026 61.05 230.2615Q61.784374 230.54276 62.128124 231.02713Q62.4875 231.49588 62.628124 232.30838L61.253124 232.49588Q61.159374 231.85526 60.70625 231.49588Q60.253124 231.1365 59.440624 231.1365Q58.471874 231.1365 58.05 231.46463Q57.64375 231.77713 57.64375 232.199Q57.64375 232.48026 57.815624 232.699Q57.9875 232.91776 58.346874 233.074Q58.565624 233.15213 59.596874 233.43338Q61.08125 233.824 61.675 234.08963Q62.26875 234.33963 62.596874 234.824Q62.940624 235.30838 62.940624 236.02713Q62.940624 236.73026 62.51875 237.35526Q62.1125 237.96463 61.33125 238.30838Q60.565624 238.65213 59.596874 238.65213Q57.971874 238.65213 57.128124 237.98026Q56.284374 237.30838 56.05 235.98026ZM70.28438 235.79276L71.7375 235.96463Q71.39375 237.24588 70.45625 237.949Q69.53438 238.65213 68.09688 238.65213Q66.26875 238.65213 65.20625 237.52713Q64.14375 236.40213 64.14375 234.3865Q64.14375 232.29276 65.22188 231.1365Q66.3 229.98026 68.01875 229.98026Q69.675 229.98026 70.72188 231.12088Q71.78438 232.24588 71.78438 234.29276Q71.78438 234.41776 71.78438 234.66776L65.59688 234.66776Q65.675 236.04276 66.3625 236.77713Q67.06563 237.49588 68.09688 237.49588Q68.87813 237.49588 69.425 237.08963Q69.97188 236.68338 70.28438 235.79276ZM65.675 233.5115L70.3 233.5115Q70.20625 232.46463 69.76875 231.949Q69.09688 231.1365 68.03438 231.1365Q67.06563 231.1365 66.39375 231.79276Q65.7375 232.43338 65.675 233.5115ZM78.9875 238.46463L78.9875 237.41776Q78.20625 238.65213 76.675 238.65213Q75.675 238.65213 74.84688 238.10526Q74.01875 237.55838 73.55 236.574Q73.09688 235.58963 73.09688 234.324Q73.09688 233.074 73.50313 232.074Q73.925 231.05838 74.75313 230.52713Q75.58125 229.98026 76.6125 229.98026Q77.3625 229.98026 77.94063 230.29276Q78.53438 230.60526 78.89375 231.12088L78.89375 227.0115L80.3 227.0115L80.3 238.46463L78.9875 238.46463ZM74.55 234.324Q74.55 235.91776 75.22188 236.71463Q75.89375 237.49588 76.8 237.49588Q77.72188 237.49588 78.3625 236.74588Q79.01875 235.98026 79.01875 234.43338Q79.01875 232.73026 78.3625 231.93338Q77.70625 231.1365 76.7375 231.1365Q75.8 231.1365 75.175 231.90213Q74.55 232.66776 74.55 234.324Z"
     fill-rule="nonzero"
     id="path14" />
  <path
     fill="#8e8d8e"
     d="M19.221874 257.46463L20.690624 257.33963Q20.8625 258.41776 21.45625 258.96463Q22.05 259.49588 22.89375 259.49588Q23.909374 259.49588 24.6125 258.73026Q25.315624 257.96463 25.315624 256.699Q25.315624 255.49588 24.64375 254.80838Q23.971874 254.10526 22.878124 254.10526Q22.190624 254.10526 21.64375 254.41776Q21.096874 254.73026 20.784374 255.21463L19.471874 255.04276L20.58125 249.16776L26.26875 249.16776L26.26875 250.5115L21.70625 250.5115L21.08125 253.58963Q22.1125 252.87088 23.253124 252.87088Q24.753124 252.87088 25.784374 253.91776Q26.815624 254.949 26.815624 256.574Q26.815624 258.1365 25.909374 259.2615Q24.8 260.66776 22.89375 260.66776Q21.33125 260.66776 20.346874 259.79276Q19.3625 258.90213 19.221874 257.46463ZM33.51875 260.46463L32.1125 260.46463L32.1125 251.49588Q31.596874 251.98026 30.76875 252.46463Q29.95625 252.949 29.3 253.199L29.3 251.83963Q30.471874 251.27713 31.346874 250.49588Q32.2375 249.699 32.6125 248.96463L33.51875 248.96463L33.51875 260.46463ZM38.003124 260.46463L38.003124 258.85526L39.6125 258.85526L39.6125 260.46463L38.003124 260.46463ZM48.6125 259.10526L48.6125 260.46463L41.034374 260.46463Q41.01875 259.949 41.20625 259.48026Q41.4875 258.71463 42.128124 257.96463Q42.76875 257.21463 43.971874 256.23026Q45.83125 254.699 46.4875 253.80838Q47.14375 252.90213 47.14375 252.10526Q47.14375 251.27713 46.55 250.699Q45.95625 250.12088 44.9875 250.12088Q43.971874 250.12088 43.3625 250.73026Q42.753124 251.33963 42.753124 252.41776L41.3 252.27713Q41.45625 250.65213 42.425 249.80838Q43.39375 248.96463 45.01875 248.96463Q46.675 248.96463 47.628124 249.8865Q48.596874 250.79276 48.596874 252.1365Q48.596874 252.824 48.315624 253.49588Q48.034374 254.15213 47.378124 254.8865Q46.721874 255.62088 45.20625 256.90213Q43.940624 257.96463 43.58125 258.35526Q43.221874 258.73026 42.9875 259.10526L48.6125 259.10526ZM50.4875 251.7615Q50.4875 250.52713 51.096874 249.66776Q51.721874 248.80838 52.89375 248.80838Q53.971874 248.80838 54.675 249.58963Q55.378124 250.35526 55.378124 251.83963Q55.378124 253.29276 54.659374 254.08963Q53.95625 254.87088 52.909374 254.87088Q51.8625 254.87088 51.175 254.10526Q50.4875 253.324 50.4875 251.7615ZM52.925 249.77713Q52.409374 249.77713 52.05 250.23026Q51.70625 250.68338 51.70625 251.90213Q51.70625 252.99588 52.05 253.449Q52.409374 253.90213 52.925 253.90213Q53.45625 253.90213 53.8 253.449Q54.159374 252.99588 54.159374 251.79276Q54.159374 250.68338 53.8 250.23026Q53.45625 249.77713 52.925 249.77713ZM52.940624 260.8865L59.20625 248.80838L60.346874 248.80838L54.096874 260.8865L52.940624 260.8865ZM57.89375 257.77713Q57.89375 256.54276 58.503124 255.68338Q59.128124 254.824 60.3 254.824Q61.378124 254.824 62.08125 255.60526Q62.8 256.37088 62.8 257.85526Q62.8 259.30838 62.08125 260.10526Q61.3625 260.8865 60.315624 260.8865Q59.26875 260.8865 58.58125 260.10526Q57.89375 259.324 57.89375 257.77713ZM60.346874 255.79276Q59.815624 255.79276 59.45625 256.24588Q59.1125 256.699 59.1125 257.91776Q59.1125 259.0115 59.45625 259.46463Q59.815624 259.91776 60.33125 259.91776Q60.878124 259.91776 61.221874 259.46463Q61.565624 259.0115 61.565624 257.80838Q61.565624 256.699 61.20625 256.24588Q60.8625 255.79276 60.346874 255.79276Z"
     fill-rule="nonzero"
     id="path15" />
  <path
     stroke="#b7b6b7"
     stroke-width="1.0"
     stroke-linecap="butt"
     d="M18.55 243.96463L145.23334 243.96463L164.5337 243.96463"
     fill-rule="nonzero"
     id="path16" />
  <path
     fill="#8e8d8e"
     d="M166.5337 243.96463C166.5337 242.86006 165.63828 241.96463 164.5337 241.96463C163.42914 241.96463 162.5337 242.86006 162.5337 243.96463C162.5337 245.0692 163.42914 245.96463 164.5337 245.96463C165.63828 245.96463 166.5337 245.0692 166.5337 243.96463"
     fill-rule="nonzero"
     id="path17" />
  <path
     fill="#ffffff"
     d="m 398.75016,54.919988 4.40624,-11.45313 h 1.64064 l 4.6875,11.45313 h -1.73438 l -1.32812,-3.46875 h -4.79688 l -1.25,3.46875 z m 3.3125,-4.70313 h 3.89064 l -1.20314,-3.17187 q -0.54686,-1.45313 -0.8125,-2.375 -0.21876,1.09375 -0.60936,2.1875 z m 8.78124,4.70313 v -8.29688 h 1.26564 v 1.17188 q 0.90626,-1.35938 2.64062,-1.35938 0.75,0 1.375,0.26563 0.625,0.26562 0.9375,0.70312 0.3125,0.4375 0.4375,1.04688 0.0781,0.39062 0.0781,1.35937 v 5.10938 H 416.172 v -5.04688 q 0,-0.85937 -0.17188,-1.28125 -0.15626,-0.4375 -0.57812,-0.6875 -0.40624,-0.25 -0.96874,-0.25 -0.90626,0 -1.5625,0.57813 -0.64064,0.5625 -0.64064,2.15625 v 4.53125 z m 8,0 v -8.29688 h 1.26564 v 1.17188 q 0.90626,-1.35938 2.64062,-1.35938 0.75,0 1.375,0.26563 0.625,0.26562 0.9375,0.70312 0.3125,0.4375 0.4375,1.04688 0.0781,0.39062 0.0781,1.35937 v 5.10938 H 424.172 v -5.04688 q 0,-0.85937 -0.17188,-1.28125 -0.15626,-0.4375 -0.57812,-0.6875 -0.40624,-0.25 -0.96874,-0.25 -0.90626,0 -1.5625,0.57813 -0.64064,0.5625 -0.64064,2.15625 v 4.53125 z m 7.46876,-4.15625 q 0,-2.29688 1.28124,-3.40625 1.07814,-0.92188 2.6094,-0.92188 1.71874,0 2.79686,1.125 1.09374,1.10938 1.09374,3.09375 0,1.59375 -0.48436,2.51563 -0.48438,0.92187 -1.40624,1.4375 -0.90626,0.5 -2,0.5 -1.7344,0 -2.8125,-1.10938 -1.07814,-1.125 -1.07814,-3.23437 z m 1.45314,0 q 0,1.59375 0.6875,2.39062 0.7031,0.79688 1.75,0.79688 1.04686,0 1.73436,-0.79688 0.70314,-0.79687 0.70314,-2.4375 0,-1.53125 -0.70314,-2.32812 -0.6875,-0.79688 -1.73436,-0.79688 -1.0469,0 -1.75,0.79688 -0.6875,0.78125 -0.6875,2.375 z m 8.0156,7.35937 -0.15624,-1.32812 q 0.45314,0.125 0.79688,0.125 0.46876,0 0.75,-0.15625 0.28126,-0.15625 0.46876,-0.4375 0.125,-0.20313 0.42186,-1.04688 0.0469,-0.10937 0.125,-0.34375 l -3.14062,-8.3125 h 1.51562 l 1.71874,4.79688 q 0.34376,0.92187 0.6094,1.92187 0.23436,-0.96875 0.5781,-1.89062 l 1.76564,-4.82813 h 1.40626 l -3.15626,8.4375 q -0.5,1.375 -0.78124,1.89063 -0.375,0.6875 -0.8594,1.01562 -0.48436,0.32813 -1.15624,0.32813 -0.40626,0 -0.90626,-0.17188 z m 12.7344,-5.875 1.4531,0.17188 q -0.34374,1.28125 -1.28124,1.98437 -0.92186,0.70313 -2.35936,0.70313 -1.82814,0 -2.89064,-1.125 -1.0625,-1.125 -1.0625,-3.14063 0,-2.09375 1.07814,-3.25 1.0781,-1.15625 2.79686,-1.15625 1.65624,0 2.70314,1.14063 1.0625,1.125 1.0625,3.17187 0,0.125 0,0.375 h -6.1875 q 0.0781,1.375 0.7656,2.10938 0.70314,0.71875 1.7344,0.71875 0.78124,0 1.3281,-0.40625 0.5469,-0.40625 0.8594,-1.29688 z m -4.6094,-2.28125 h 4.625 q -0.0937,-1.04687 -0.53124,-1.5625 -0.67186,-0.8125 -1.73436,-0.8125 -0.96876,0 -1.64064,0.65625 -0.65626,0.64063 -0.71876,1.71875 z m 13.3125,4.95313 v -1.04688 q -0.78124,1.23438 -2.3125,1.23438 -1,0 -1.8281,-0.54688 -0.82814,-0.54687 -1.2969,-1.53125 -0.4531,-0.98437 -0.4531,-2.25 0,-1.25 0.40624,-2.25 0.42186,-1.01562 1.25,-1.54687 0.82812,-0.54688 1.85936,-0.54688 0.75,0 1.32814,0.3125 0.59376,0.3125 0.95312,0.82813 v -4.10938 h 1.40624 v 11.45313 z m -4.4375,-4.14063 q 0,1.59375 0.6719,2.39063 0.67186,0.78125 1.5781,0.78125 0.9219,0 1.5625,-0.75 0.65626,-0.76563 0.65626,-2.3125 0,-1.70313 -0.65626,-2.5 -0.65624,-0.79688 -1.625,-0.79688 -0.9375,0 -1.5625,0.76563 -0.625,0.76562 -0.625,2.42187 z"
     fill-rule="nonzero"
     id="path18" />
  <path
     fill="#8e8d8e"
     d="m 415.7818,72.053244 v -2.75 h -4.96876 v -1.28125 l 5.23436,-7.42188 h 1.14064 v 7.42188 h 1.54686 v 1.28125 h -1.54686 v 2.75 z m 0,-4.03125 v -5.17188 l -3.57814,5.17188 z m 9,4.03125 v -2.75 h -4.96876 v -1.28125 l 5.23436,-7.42188 h 1.14064 v 7.42188 h 1.54686 v 1.28125 h -1.54686 v 2.75 z m 0,-4.03125 v -5.17188 l -3.57814,5.17188 z m 5.28124,4.03125 v -1.60938 h 1.60936 v 1.60938 z m 5.375,-6.21875 q -0.875,-0.3125 -1.29688,-0.90625 -0.42186,-0.59375 -0.42186,-1.42188 0,-1.25 0.8906,-2.09375 0.90626,-0.85937 2.40626,-0.85937 1.5,0 2.40624,0.875 0.9219,0.85937 0.9219,2.10937 0,0.79688 -0.4219,1.39063 -0.42186,0.59375 -1.2656,0.90625 1.04686,0.34375 1.59374,1.10937 0.5625,0.76563 0.5625,1.82813 0,1.46875 -1.04688,2.48437 -1.03126,1 -2.73436,1 -1.6875,0 -2.7344,-1 -1.03124,-1.01562 -1.03124,-2.51562 0,-1.125 0.5625,-1.875 0.5625,-0.75 1.60938,-1.03125 z m -0.28124,-2.375 q 0,0.8125 0.5156,1.32812 0.53126,0.51563 1.375,0.51563 0.8125,0 1.32814,-0.51563 0.51562,-0.51562 0.51562,-1.25 0,-0.78125 -0.53126,-1.29687 -0.53124,-0.53125 -1.3281,-0.53125 -0.8125,0 -1.34376,0.51562 -0.53124,0.51563 -0.53124,1.23438 z m -0.45314,5.28125 q 0,0.60937 0.28124,1.17187 0.2969,0.5625 0.8594,0.875 0.5625,0.29688 1.2031,0.29688 1.01564,0 1.6719,-0.64063 0.65624,-0.65625 0.65624,-1.65625 0,-1.01562 -0.6875,-1.67187 -0.67188,-0.67188 -1.6875,-0.67188 -0.98438,0 -1.64064,0.65625 -0.65624,0.65625 -0.65624,1.64063 z m 7.84374,-5.39063 q 0,-1.23437 0.6094,-2.09375 0.625,-0.85937 1.79686,-0.85937 1.07814,0 1.78124,0.78125 0.70314,0.76562 0.70314,2.25 0,1.45312 -0.71874,2.25 -0.70314,0.78125 -1.75,0.78125 -1.0469,0 -1.7344,-0.76563 -0.6875,-0.78125 -0.6875,-2.34375 z m 2.4375,-1.98437 q -0.5156,0 -0.875,0.45312 -0.34374,0.45313 -0.34374,1.67188 0,1.09375 0.34374,1.54687 0.3594,0.45313 0.875,0.45313 0.53126,0 0.875,-0.45313 0.3594,-0.45312 0.3594,-1.65625 0,-1.10937 -0.3594,-1.5625 -0.34374,-0.45312 -0.875,-0.45312 z m 0.0156,11.10937 6.26562,-12.07812 h 1.14064 l -6.25,12.07812 z m 4.95312,-3.10937 q 0,-1.23438 0.60938,-2.09375 0.625,-0.85938 1.79686,-0.85938 1.07814,0 1.78126,0.78125 0.71874,0.76563 0.71874,2.25 0,1.45313 -0.71874,2.25 -0.71876,0.78125 -1.76562,0.78125 -1.04688,0 -1.73438,-0.78125 -0.6875,-0.78125 -0.6875,-2.32812 z m 2.45314,-1.98438 q -0.53126,0 -0.89064,0.45313 -0.34376,0.45312 -0.34376,1.67187 0,1.09375 0.34376,1.54688 0.35938,0.45312 0.875,0.45312 0.54688,0 0.89064,-0.45312 0.34374,-0.45313 0.34374,-1.65625 0,-1.10938 -0.35938,-1.5625 -0.34376,-0.45313 -0.85936,-0.45313 z"
     fill-rule="nonzero"
     id="path19" />
  <path
     stroke="#b7b6b7"
     stroke-width="1"
     stroke-linecap="butt"
     d="M 441.00967,75.715469 454.76666,180.69809 H 439.4467"
     fill-rule="nonzero"
     id="path20"
     sodipodi:nodetypes="ccc" />
  <path
     fill="#8e8d8e"
     d="M441.4467 180.69809C441.4467 179.59352 440.55124 178.69809 439.4467 178.69809C438.3421 178.69809 437.4467 179.59352 437.4467 180.69809C437.4467 181.80266 438.3421 182.69809 439.4467 182.69809C440.55124 182.69809 441.4467 181.80266 441.4467 180.69809"
     fill-rule="nonzero"
     id="path21" />
</svg>
