<?xml version="1.0" encoding="UTF-8" standalone="no"?>
<svg
   version="1.1"
   viewBox="0.0 0.0 600.0 371.0"
   fill="none"
   stroke="none"
   stroke-linecap="square"
   stroke-miterlimit="10"
   width="600"
   height="371"
   id="svg22"
   sodipodi:docname="How do you feel leading up to MCAS testing .svg"
   inkscape:version="1.3.2 (091e20e, 2023-11-25)"
   xmlns:inkscape="http://www.inkscape.org/namespaces/inkscape"
   xmlns:sodipodi="http://sodipodi.sourceforge.net/DTD/sodipodi-0.dtd"
   xmlns="http://www.w3.org/2000/svg"
   xmlns:svg="http://www.w3.org/2000/svg">
  <defs
     id="defs22" />
  <sodipodi:namedview
     id="namedview22"
     pagecolor="#505050"
     bordercolor="#ffffff"
     borderopacity="1"
     inkscape:showpageshadow="0"
     inkscape:pageopacity="0"
     inkscape:pagecheckerboard="1"
     inkscape:deskcolor="#505050"
     inkscape:zoom="1.4383333"
     inkscape:cx="300"
     inkscape:cy="130.01159"
     inkscape:window-width="1920"
     inkscape:window-height="967"
     inkscape:window-x="1920"
     inkscape:window-y="91"
     inkscape:window-maximized="1"
     inkscape:current-layer="svg22" />
  <path
     fill="#4285f4"
     d="M300.0 54.916668C372.82346 54.916668 434.94217 107.63447 446.78598 179.48834C458.6298 251.34222 416.71667 321.20776 347.7457 344.58L300.0 203.68333Z"
     fill-rule="nonzero"
     id="path2"
     style="fill-rule:nonzero;fill:#4285f4;fill-opacity:1" />
  <path
     fill="#34a853"
     d="M285.06952 55.667786C290.0306 55.16736 295.01373 54.916668 300.0 54.916668L300.0 203.68333Z"
     fill-rule="nonzero"
     id="path3" />
  <path
     fill="#fbbc04"
     d="M263.00323 59.590446C270.24957 57.729904 277.62592 56.41863 285.06952 55.667786L300.0 203.68333Z"
     fill-rule="nonzero"
     id="path4" />
  <path
     fill="#ea4335"
     d="M347.7457 344.58C296.1409 362.06732 239.10487 349.94394 199.0743 312.9789C159.0437 276.01385 142.42415 220.12221 155.7534 167.29047C169.08266 114.45872 210.22778 73.14088 263.00323 59.590446L300.0 203.68333Z"
     fill-rule="nonzero"
     id="path5" />
  <path
     stroke="#e3e2e4"
     stroke-width="1.0"
     stroke-linejoin="round"
     stroke-linecap="round"
     d="M300.0 203.68333L300.0 54.916668C372.82346 54.916668 434.94217 107.63447 446.78598 179.48834C458.6298 251.34222 416.71667 321.20776 347.7457 344.58"
     fill-rule="nonzero"
     id="path6" />
  <path
     stroke="#e3e2e4"
     stroke-width="1.0"
     stroke-linejoin="round"
     stroke-linecap="round"
     d="M300.0 203.68333L347.7457 344.58C296.1409 362.06732 239.10487 349.94394 199.0743 312.9789C159.0437 276.01385 142.42415 220.12221 155.7534 167.29047C169.08266 114.45872 210.22778 73.14088 263.00323 59.590446"
     fill-rule="nonzero"
     id="path7" />
  <path
     stroke="#e3e2e4"
     stroke-width="1.0"
     stroke-linejoin="round"
     stroke-linecap="round"
     d="M300.0 203.68333L263.00323 59.590446C270.24957 57.729904 277.62592 56.41863 285.06952 55.667786"
     fill-rule="nonzero"
     id="path8" />
  <path
     stroke="#e3e2e4"
     stroke-width="1.0"
     stroke-linejoin="round"
     stroke-linecap="round"
     d="M300.0 203.68333L285.06952 55.667786C290.0306 55.16736 295.01373 54.916668 300.0 54.916668"
     fill-rule="nonzero"
     id="path9" />
  <path
     fill="#ffffff"
     d="M19.26875 234.77713L20.70625 234.65213Q20.8 235.5115 21.175 236.074Q21.55 236.62088 22.33125 236.96463Q23.1125 237.29276 24.08125 237.29276Q24.95625 237.29276 25.6125 237.04276Q26.284374 236.77713 26.596874 236.33963Q26.925 235.8865 26.925 235.35526Q26.925 234.80838 26.6125 234.41776Q26.3 234.0115 25.58125 233.73026Q25.128124 233.55838 23.55 233.18338Q21.971874 232.79276 21.33125 232.46463Q20.51875 232.02713 20.1125 231.40213Q19.70625 230.7615 19.70625 229.96463Q19.70625 229.10526 20.190624 228.35526Q20.690624 227.58963 21.628124 227.199Q22.58125 226.80838 23.7375 226.80838Q25.01875 226.80838 25.9875 227.23026Q26.95625 227.6365 27.471874 228.43338Q28.003124 229.23026 28.05 230.23026L26.596874 230.33963Q26.471874 229.2615 25.8 228.71463Q25.128124 228.15213 23.8 228.15213Q22.425 228.15213 21.8 228.65213Q21.175 229.15213 21.175 229.87088Q21.175 230.48026 21.6125 230.8865Q22.05 231.27713 23.89375 231.699Q25.753124 232.12088 26.440624 232.43338Q27.440624 232.8865 27.909374 233.60526Q28.39375 234.30838 28.39375 235.23026Q28.39375 236.1365 27.8625 236.949Q27.346874 237.7615 26.3625 238.21463Q25.378124 238.66776 24.159374 238.66776Q22.596874 238.66776 21.55 238.21463Q20.503124 237.74588 19.89375 236.83963Q19.3 235.93338 19.26875 234.77713ZM33.675 237.199L33.878124 238.449Q33.284374 238.574 32.815624 238.574Q32.05 238.574 31.628124 238.33963Q31.20625 238.08963 31.034374 237.699Q30.8625 237.29276 30.8625 236.02713L30.8625 231.2615L29.83125 231.2615L29.83125 230.16776L30.8625 230.16776L30.8625 228.10526L32.26875 227.2615L32.26875 230.16776L33.675 230.16776L33.675 231.2615L32.26875 231.2615L32.26875 236.10526Q32.26875 236.71463 32.33125 236.8865Q32.409374 237.05838 32.58125 237.16776Q32.753124 237.2615 33.065624 237.2615Q33.3 237.2615 33.675 237.199ZM34.596874 238.46463L34.596874 230.16776L35.8625 230.16776L35.8625 231.41776Q36.346874 230.54276 36.753124 230.2615Q37.159374 229.98026 37.659374 229.98026Q38.3625 229.98026 39.096874 230.43338L38.6125 231.73026Q38.096874 231.43338 37.58125 231.43338Q37.128124 231.43338 36.753124 231.71463Q36.39375 231.98026 36.2375 232.48026Q36.003124 233.23026 36.003124 234.12088L36.003124 238.46463L34.596874 238.46463ZM45.284374 235.79276L46.7375 235.96463Q46.39375 237.24588 45.45625 237.949Q44.534374 238.65213 43.096874 238.65213Q41.26875 238.65213 40.20625 237.52713Q39.14375 236.40213 39.14375 234.3865Q39.14375 232.29276 40.221874 231.1365Q41.3 229.98026 43.01875 229.98026Q44.675 229.98026 45.721874 231.12088Q46.784374 232.24588 46.784374 234.29276Q46.784374 234.41776 46.784374 234.66776L40.596874 234.66776Q40.675 236.04276 41.3625 236.77713Q42.065624 237.49588 43.096874 237.49588Q43.878124 237.49588 44.425 237.08963Q44.971874 236.68338 45.284374 235.79276ZM40.675 233.5115L45.3 233.5115Q45.20625 232.46463 44.76875 231.949Q44.096874 231.1365 43.034374 231.1365Q42.065624 231.1365 41.39375 231.79276Q40.7375 232.43338 40.675 233.5115ZM48.05 235.98026L49.440624 235.7615Q49.55 236.60526 50.08125 237.05838Q50.628124 237.49588 51.58125 237.49588Q52.55 237.49588 53.01875 237.10526Q53.4875 236.699 53.4875 236.16776Q53.4875 235.699 53.08125 235.41776Q52.784374 235.23026 51.64375 234.949Q50.096874 234.55838 49.4875 234.27713Q48.89375 233.98026 48.58125 233.48026Q48.284374 232.98026 48.284374 232.37088Q48.284374 231.80838 48.534374 231.33963Q48.784374 230.87088 49.221874 230.55838Q49.55 230.30838 50.1125 230.15213Q50.690624 229.98026 51.33125 229.98026Q52.315624 229.98026 53.05 230.2615Q53.784374 230.54276 54.128124 231.02713Q54.4875 231.49588 54.628124 232.30838L53.253124 232.49588Q53.159374 231.85526 52.70625 231.49588Q52.253124 231.1365 51.440624 231.1365Q50.471874 231.1365 50.05 231.46463Q49.64375 231.77713 49.64375 232.199Q49.64375 232.48026 49.815624 232.699Q49.9875 232.91776 50.346874 233.074Q50.565624 233.15213 51.596874 233.43338Q53.08125 233.824 53.675 234.08963Q54.26875 234.33963 54.596874 234.824Q54.940624 235.30838 54.940624 236.02713Q54.940624 236.73026 54.51875 237.35526Q54.1125 237.96463 53.33125 238.30838Q52.565624 238.65213 51.596874 238.65213Q49.971874 238.65213 49.128124 237.98026Q48.284374 237.30838 48.05 235.98026ZM56.05 235.98026L57.440624 235.7615Q57.55 236.60526 58.08125 237.05838Q58.628124 237.49588 59.58125 237.49588Q60.55 237.49588 61.01875 237.10526Q61.4875 236.699 61.4875 236.16776Q61.4875 235.699 61.08125 235.41776Q60.784374 235.23026 59.64375 234.949Q58.096874 234.55838 57.4875 234.27713Q56.89375 233.98026 56.58125 233.48026Q56.284374 232.98026 56.284374 232.37088Q56.284374 231.80838 56.534374 231.33963Q56.784374 230.87088 57.221874 230.55838Q57.55 230.30838 58.1125 230.15213Q58.690624 229.98026 59.33125 229.98026Q60.315624 229.98026 61.05 230.2615Q61.784374 230.54276 62.128124 231.02713Q62.4875 231.49588 62.628124 232.30838L61.253124 232.49588Q61.159374 231.85526 60.70625 231.49588Q60.253124 231.1365 59.440624 231.1365Q58.471874 231.1365 58.05 231.46463Q57.64375 231.77713 57.64375 232.199Q57.64375 232.48026 57.815624 232.699Q57.9875 232.91776 58.346874 233.074Q58.565624 233.15213 59.596874 233.43338Q61.08125 233.824 61.675 234.08963Q62.26875 234.33963 62.596874 234.824Q62.940624 235.30838 62.940624 236.02713Q62.940624 236.73026 62.51875 237.35526Q62.1125 237.96463 61.33125 238.30838Q60.565624 238.65213 59.596874 238.65213Q57.971874 238.65213 57.128124 237.98026Q56.284374 237.30838 56.05 235.98026ZM70.28438 235.79276L71.7375 235.96463Q71.39375 237.24588 70.45625 237.949Q69.53438 238.65213 68.09688 238.65213Q66.26875 238.65213 65.20625 237.52713Q64.14375 236.40213 64.14375 234.3865Q64.14375 232.29276 65.22188 231.1365Q66.3 229.98026 68.01875 229.98026Q69.675 229.98026 70.72188 231.12088Q71.78438 232.24588 71.78438 234.29276Q71.78438 234.41776 71.78438 234.66776L65.59688 234.66776Q65.675 236.04276 66.3625 236.77713Q67.06563 237.49588 68.09688 237.49588Q68.87813 237.49588 69.425 237.08963Q69.97188 236.68338 70.28438 235.79276ZM65.675 233.5115L70.3 233.5115Q70.20625 232.46463 69.76875 231.949Q69.09688 231.1365 68.03438 231.1365Q67.06563 231.1365 66.39375 231.79276Q65.7375 232.43338 65.675 233.5115ZM78.9875 238.46463L78.9875 237.41776Q78.20625 238.65213 76.675 238.65213Q75.675 238.65213 74.84688 238.10526Q74.01875 237.55838 73.55 236.574Q73.09688 235.58963 73.09688 234.324Q73.09688 233.074 73.50313 232.074Q73.925 231.05838 74.75313 230.52713Q75.58125 229.98026 76.6125 229.98026Q77.3625 229.98026 77.94063 230.29276Q78.53438 230.60526 78.89375 231.12088L78.89375 227.0115L80.3 227.0115L80.3 238.46463L78.9875 238.46463ZM74.55 234.324Q74.55 235.91776 75.22188 236.71463Q75.89375 237.49588 76.8 237.49588Q77.72188 237.49588 78.3625 236.74588Q79.01875 235.98026 79.01875 234.43338Q79.01875 232.73026 78.3625 231.93338Q77.70625 231.1365 76.7375 231.1365Q75.8 231.1365 75.175 231.90213Q74.55 232.66776 74.55 234.324Z"
     fill-rule="nonzero"
     id="path14" />
  <path
     fill="#8e8d8e"
     d="M19.221874 257.46463L20.690624 257.33963Q20.8625 258.41776 21.45625 258.96463Q22.05 259.49588 22.89375 259.49588Q23.909374 259.49588 24.6125 258.73026Q25.315624 257.96463 25.315624 256.699Q25.315624 255.49588 24.64375 254.80838Q23.971874 254.10526 22.878124 254.10526Q22.190624 254.10526 21.64375 254.41776Q21.096874 254.73026 20.784374 255.21463L19.471874 255.04276L20.58125 249.16776L26.26875 249.16776L26.26875 250.5115L21.70625 250.5115L21.08125 253.58963Q22.1125 252.87088 23.253124 252.87088Q24.753124 252.87088 25.784374 253.91776Q26.815624 254.949 26.815624 256.574Q26.815624 258.1365 25.909374 259.2615Q24.8 260.66776 22.89375 260.66776Q21.33125 260.66776 20.346874 259.79276Q19.3625 258.90213 19.221874 257.46463ZM33.51875 260.46463L32.1125 260.46463L32.1125 251.49588Q31.596874 251.98026 30.76875 252.46463Q29.95625 252.949 29.3 253.199L29.3 251.83963Q30.471874 251.27713 31.346874 250.49588Q32.2375 249.699 32.6125 248.96463L33.51875 248.96463L33.51875 260.46463ZM38.003124 260.46463L38.003124 258.85526L39.6125 258.85526L39.6125 260.46463L38.003124 260.46463ZM48.6125 259.10526L48.6125 260.46463L41.034374 260.46463Q41.01875 259.949 41.20625 259.48026Q41.4875 258.71463 42.128124 257.96463Q42.76875 257.21463 43.971874 256.23026Q45.83125 254.699 46.4875 253.80838Q47.14375 252.90213 47.14375 252.10526Q47.14375 251.27713 46.55 250.699Q45.95625 250.12088 44.9875 250.12088Q43.971874 250.12088 43.3625 250.73026Q42.753124 251.33963 42.753124 252.41776L41.3 252.27713Q41.45625 250.65213 42.425 249.80838Q43.39375 248.96463 45.01875 248.96463Q46.675 248.96463 47.628124 249.8865Q48.596874 250.79276 48.596874 252.1365Q48.596874 252.824 48.315624 253.49588Q48.034374 254.15213 47.378124 254.8865Q46.721874 255.62088 45.20625 256.90213Q43.940624 257.96463 43.58125 258.35526Q43.221874 258.73026 42.9875 259.10526L48.6125 259.10526ZM50.4875 251.7615Q50.4875 250.52713 51.096874 249.66776Q51.721874 248.80838 52.89375 248.80838Q53.971874 248.80838 54.675 249.58963Q55.378124 250.35526 55.378124 251.83963Q55.378124 253.29276 54.659374 254.08963Q53.95625 254.87088 52.909374 254.87088Q51.8625 254.87088 51.175 254.10526Q50.4875 253.324 50.4875 251.7615ZM52.925 249.77713Q52.409374 249.77713 52.05 250.23026Q51.70625 250.68338 51.70625 251.90213Q51.70625 252.99588 52.05 253.449Q52.409374 253.90213 52.925 253.90213Q53.45625 253.90213 53.8 253.449Q54.159374 252.99588 54.159374 251.79276Q54.159374 250.68338 53.8 250.23026Q53.45625 249.77713 52.925 249.77713ZM52.940624 260.8865L59.20625 248.80838L60.346874 248.80838L54.096874 260.8865L52.940624 260.8865ZM57.89375 257.77713Q57.89375 256.54276 58.503124 255.68338Q59.128124 254.824 60.3 254.824Q61.378124 254.824 62.08125 255.60526Q62.8 256.37088 62.8 257.85526Q62.8 259.30838 62.08125 260.10526Q61.3625 260.8865 60.315624 260.8865Q59.26875 260.8865 58.58125 260.10526Q57.89375 259.324 57.89375 257.77713ZM60.346874 255.79276Q59.815624 255.79276 59.45625 256.24588Q59.1125 256.699 59.1125 257.91776Q59.1125 259.0115 59.45625 259.46463Q59.815624 259.91776 60.33125 259.91776Q60.878124 259.91776 61.221874 259.46463Q61.565624 259.0115 61.565624 257.80838Q61.565624 256.699 61.20625 256.24588Q60.8625 255.79276 60.346874 255.79276Z"
     fill-rule="nonzero"
     id="path15" />
  <path
     stroke="#b7b6b7"
     stroke-width="1.0"
     stroke-linecap="butt"
     d="M18.55 243.96463L145.23334 243.96463L164.5337 243.96463"
     fill-rule="nonzero"
     id="path16" />
  <path
     fill="#8e8d8e"
     d="M166.5337 243.96463C166.5337 242.86006 165.63828 241.96463 164.5337 241.96463C163.42914 241.96463 162.5337 242.86006 162.5337 243.96463C162.5337 245.0692 163.42914 245.96463 164.5337 245.96463C165.63828 245.96463 166.5337 245.0692 166.5337 243.96463"
     fill-rule="nonzero"
     id="path17" />
  <path
     fill="#ffffff"
     d="M520.41876 175.19809L524.825 163.74496L526.46564 163.74496L531.15314 175.19809L529.41876 175.19809L528.09064 171.72934L523.29376 171.72934L522.04376 175.19809L520.41876 175.19809ZM523.73126 170.49496L527.6219 170.49496L526.41876 167.32309Q525.8719 165.86996 525.60626 164.94809Q525.3875 166.04184 524.9969 167.13559L523.73126 170.49496ZM532.5125 175.19809L532.5125 166.90121L533.77814 166.90121L533.77814 168.07309Q534.6844 166.71371 536.41876 166.71371Q537.16876 166.71371 537.79376 166.97934Q538.41876 167.24496 538.73126 167.68246Q539.04376 168.11996 539.16876 168.72934Q539.2469 169.11996 539.2469 170.08871L539.2469 175.19809L537.84064 175.19809L537.84064 170.15121Q537.84064 169.29184 537.66876 168.86996Q537.5125 168.43246 537.09064 168.18246Q536.6844 167.93246 536.1219 167.93246Q535.21564 167.93246 534.5594 168.51059Q533.91876 169.07309 533.91876 170.66684L533.91876 175.19809L532.5125 175.19809ZM540.5125 175.19809L540.5125 166.90121L541.77814 166.90121L541.77814 168.07309Q542.6844 166.71371 544.41876 166.71371Q545.16876 166.71371 545.79376 166.97934Q546.41876 167.24496 546.73126 167.68246Q547.04376 168.11996 547.16876 168.72934Q547.2469 169.11996 547.2469 170.08871L547.2469 175.19809L545.84064 175.19809L545.84064 170.15121Q545.84064 169.29184 545.66876 168.86996Q545.5125 168.43246 545.09064 168.18246Q544.6844 167.93246 544.1219 167.93246Q543.21564 167.93246 542.5594 168.51059Q541.91876 169.07309 541.91876 170.66684L541.91876 175.19809L540.5125 175.19809ZM547.98126 171.04184Q547.98126 168.74496 549.2625 167.63559Q550.34064 166.71371 551.8719 166.71371Q553.59064 166.71371 554.66876 167.83871Q555.7625 168.94809 555.7625 170.93246Q555.7625 172.52621 555.27814 173.44809Q554.79376 174.36996 553.8719 174.88559Q552.96564 175.38559 551.8719 175.38559Q550.1375 175.38559 549.0594 174.27621Q547.98126 173.15121 547.98126 171.04184ZM549.4344 171.04184Q549.4344 172.63559 550.1219 173.43246Q550.825 174.22934 551.8719 174.22934Q552.91876 174.22934 553.60626 173.43246Q554.3094 172.63559 554.3094 170.99496Q554.3094 169.46371 553.60626 168.66684Q552.91876 167.86996 551.8719 167.86996Q550.825 167.86996 550.1219 168.66684Q549.4344 169.44809 549.4344 171.04184ZM557.45 178.40121L557.29376 177.07309Q557.7469 177.19809 558.09064 177.19809Q558.5594 177.19809 558.84064 177.04184Q559.1219 176.88559 559.3094 176.60434Q559.4344 176.40121 559.73126 175.55746Q559.77814 175.44809 559.85626 175.21371L556.71564 166.90121L558.23126 166.90121L559.95 171.69809Q560.29376 172.61996 560.5594 173.61996Q560.79376 172.65121 561.1375 171.72934L562.90314 166.90121L564.3094 166.90121L561.15314 175.33871Q560.65314 176.71371 560.3719 177.22934Q559.9969 177.91684 559.5125 178.24496Q559.02814 178.57309 558.35626 178.57309Q557.95 178.57309 557.45 178.40121ZM570.1844 172.52621L571.6375 172.69809Q571.29376 173.97934 570.35626 174.68246Q569.4344 175.38559 567.9969 175.38559Q566.16876 175.38559 565.10626 174.26059Q564.04376 173.13559 564.04376 171.11996Q564.04376 169.02621 565.1219 167.86996Q566.2 166.71371 567.91876 166.71371Q569.575 166.71371 570.6219 167.85434Q571.6844 168.97934 571.6844 171.02621Q571.6844 171.15121 571.6844 171.40121L565.4969 171.40121Q565.575 172.77621 566.2625 173.51059Q566.96564 174.22934 567.9969 174.22934Q568.77814 174.22934 569.325 173.82309Q569.8719 173.41684 570.1844 172.52621ZM565.575 170.24496L570.2 170.24496Q570.10626 169.19809 569.66876 168.68246Q568.9969 167.86996 567.9344 167.86996Q566.96564 167.86996 566.29376 168.52621Q565.6375 169.16684 565.575 170.24496ZM578.8875 175.19809L578.8875 174.15121Q578.10626 175.38559 576.575 175.38559Q575.575 175.38559 574.7469 174.83871Q573.91876 174.29184 573.45 173.30746Q572.9969 172.32309 572.9969 171.05746Q572.9969 169.80746 573.40314 168.80746Q573.825 167.79184 574.65314 167.26059Q575.48126 166.71371 576.5125 166.71371Q577.2625 166.71371 577.84064 167.02621Q578.4344 167.33871 578.79376 167.85434L578.79376 163.74496L580.2 163.74496L580.2 175.19809L578.8875 175.19809ZM574.45 171.05746Q574.45 172.65121 575.1219 173.44809Q575.79376 174.22934 576.7 174.22934Q577.6219 174.22934 578.2625 173.47934Q578.91876 172.71371 578.91876 171.16684Q578.91876 169.46371 578.2625 168.66684Q577.60626 167.86996 576.6375 167.86996Q575.7 167.86996 575.075 168.63559Q574.45 169.40121 574.45 171.05746Z"
     fill-rule="nonzero"
     id="path18" />
  <path
     fill="#8e8d8e"
     d="M541.6219 197.19809L541.6219 194.44809L536.65314 194.44809L536.65314 193.16684L541.8875 185.74496L543.02814 185.74496L543.02814 193.16684L544.575 193.16684L544.575 194.44809L543.02814 194.44809L543.02814 197.19809L541.6219 197.19809ZM541.6219 193.16684L541.6219 187.99496L538.04376 193.16684L541.6219 193.16684ZM550.6219 197.19809L550.6219 194.44809L545.65314 194.44809L545.65314 193.16684L550.8875 185.74496L552.02814 185.74496L552.02814 193.16684L553.575 193.16684L553.575 194.44809L552.02814 194.44809L552.02814 197.19809L550.6219 197.19809ZM550.6219 193.16684L550.6219 187.99496L547.04376 193.16684L550.6219 193.16684ZM555.90314 197.19809L555.90314 195.58871L557.5125 195.58871L557.5125 197.19809L555.90314 197.19809ZM561.27814 190.97934Q560.40314 190.66684 559.98126 190.07309Q559.5594 189.47934 559.5594 188.65121Q559.5594 187.40121 560.45 186.55746Q561.35626 185.69809 562.85626 185.69809Q564.35626 185.69809 565.2625 186.57309Q566.1844 187.43246 566.1844 188.68246Q566.1844 189.47934 565.7625 190.07309Q565.34064 190.66684 564.4969 190.97934Q565.54376 191.32309 566.09064 192.08871Q566.65314 192.85434 566.65314 193.91684Q566.65314 195.38559 565.60626 196.40121Q564.575 197.40121 562.8719 197.40121Q561.1844 197.40121 560.1375 196.40121Q559.10626 195.38559 559.10626 193.88559Q559.10626 192.76059 559.66876 192.01059Q560.23126 191.26059 561.27814 190.97934ZM560.9969 188.60434Q560.9969 189.41684 561.5125 189.93246Q562.04376 190.44809 562.8875 190.44809Q563.7 190.44809 564.21564 189.93246Q564.73126 189.41684 564.73126 188.68246Q564.73126 187.90121 564.2 187.38559Q563.66876 186.85434 562.8719 186.85434Q562.0594 186.85434 561.52814 187.36996Q560.9969 187.88559 560.9969 188.60434ZM560.54376 193.88559Q560.54376 194.49496 560.825 195.05746Q561.1219 195.61996 561.6844 195.93246Q562.2469 196.22934 562.8875 196.22934Q563.90314 196.22934 564.5594 195.58871Q565.21564 194.93246 565.21564 193.93246Q565.21564 192.91684 564.52814 192.26059Q563.85626 191.58871 562.84064 191.58871Q561.85626 191.58871 561.2 192.24496Q560.54376 192.90121 560.54376 193.88559ZM568.3875 188.49496Q568.3875 187.26059 568.9969 186.40121Q569.6219 185.54184 570.79376 185.54184Q571.8719 185.54184 572.575 186.32309Q573.27814 187.08871 573.27814 188.57309Q573.27814 190.02621 572.5594 190.82309Q571.85626 191.60434 570.8094 191.60434Q569.7625 191.60434 569.075 190.83871Q568.3875 190.05746 568.3875 188.49496ZM570.825 186.51059Q570.3094 186.51059 569.95 186.96371Q569.60626 187.41684 569.60626 188.63559Q569.60626 189.72934 569.95 190.18246Q570.3094 190.63559 570.825 190.63559Q571.35626 190.63559 571.7 190.18246Q572.0594 189.72934 572.0594 188.52621Q572.0594 187.41684 571.7 186.96371Q571.35626 186.51059 570.825 186.51059ZM570.84064 197.61996L577.10626 185.54184L578.2469 185.54184L571.9969 197.61996L570.84064 197.61996ZM575.79376 194.51059Q575.79376 193.27621 576.40314 192.41684Q577.02814 191.55746 578.2 191.55746Q579.27814 191.55746 579.98126 192.33871Q580.7 193.10434 580.7 194.58871Q580.7 196.04184 579.98126 196.83871Q579.2625 197.61996 578.21564 197.61996Q577.16876 197.61996 576.48126 196.83871Q575.79376 196.05746 575.79376 194.51059ZM578.2469 192.52621Q577.71564 192.52621 577.35626 192.97934Q577.0125 193.43246 577.0125 194.65121Q577.0125 195.74496 577.35626 196.19809Q577.71564 196.65121 578.23126 196.65121Q578.77814 196.65121 579.1219 196.19809Q579.46564 195.74496 579.46564 194.54184Q579.46564 193.43246 579.10626 192.97934Q578.7625 192.52621 578.2469 192.52621Z"
     fill-rule="nonzero"
     id="path19" />
  <path
     stroke="#b7b6b7"
     stroke-width="1.0"
     stroke-linecap="butt"
     d="M581.45 180.69809L454.76666 180.69809L439.4467 180.69809"
     fill-rule="nonzero"
     id="path20" />
  <path
     fill="#8e8d8e"
     d="M441.4467 180.69809C441.4467 179.59352 440.55124 178.69809 439.4467 178.69809C438.3421 178.69809 437.4467 179.59352 437.4467 180.69809C437.4467 181.80266 438.3421 182.69809 439.4467 182.69809C440.55124 182.69809 441.4467 181.80266 441.4467 180.69809"
     fill-rule="nonzero"
     id="path21" />
</svg>
