<?xml version="1.0" encoding="UTF-8" standalone="no"?>
<svg
   version="1.1"
   viewBox="0 0 600 329"
   fill="none"
   stroke="none"
   stroke-linecap="square"
   stroke-miterlimit="10"
   width="600"
   height="329"
   id="svg31"
   sodipodi:docname="mcasremoved.svg"
   inkscape:export-filename="../Documents/code/civicsprojet/src/lib/images/mcasremoved.png"
   inkscape:export-xdpi="96"
   inkscape:export-ydpi="96"
   inkscape:version="1.3.2 (091e20e, 2023-11-25)"
   xmlns:inkscape="http://www.inkscape.org/namespaces/inkscape"
   xmlns:sodipodi="http://sodipodi.sourceforge.net/DTD/sodipodi-0.dtd"
   xmlns="http://www.w3.org/2000/svg"
   xmlns:svg="http://www.w3.org/2000/svg">
  <defs
     id="defs31" />
  <sodipodi:namedview
     id="namedview31"
     pagecolor="#505050"
     bordercolor="#ffffff"
     borderopacity="1"
     inkscape:showpageshadow="0"
     inkscape:pageopacity="0"
     inkscape:pagecheckerboard="1"
     inkscape:deskcolor="#505050"
     inkscape:zoom="1.4383333"
     inkscape:cx="300"
     inkscape:cy="164.77404"
     inkscape:window-width="1920"
     inkscape:window-height="967"
     inkscape:window-x="1920"
     inkscape:window-y="91"
     inkscape:window-maximized="1"
     inkscape:current-layer="svg31" />
  <path
     stroke="#333333"
     stroke-width="1"
     stroke-linecap="butt"
     d="m 43.5,246.5 h 540"
     fill-rule="nonzero"
     id="path2" />
  <path
     stroke="#cccccc"
     stroke-width="1"
     stroke-linecap="butt"
     d="m 43.5,205.5 h 540"
     fill-rule="nonzero"
     id="path3" />
  <path
     stroke="#cccccc"
     stroke-width="1"
     stroke-linecap="butt"
     d="m 43.5,164.5 h 540"
     fill-rule="nonzero"
     id="path4" />
  <path
     stroke="#cccccc"
     stroke-width="1"
     stroke-linecap="butt"
     d="m 43.5,123.5 h 540"
     fill-rule="nonzero"
     id="path5" />
  <path
     stroke="#cccccc"
     stroke-width="1"
     stroke-linecap="butt"
     d="m 43.5,82.5 h 540"
     fill-rule="nonzero"
     id="path6" />
  <clipPath
     id="id_0">
    <path
       d="m 43.45,82.416664 h 540.1 V 246.55 H 43.45 Z"
       clip-rule="nonzero"
       id="path7" />
  </clipPath>
  <path
     stroke="#000000"
     stroke-width="2"
     stroke-linecap="butt"
     stroke-opacity="0"
     clip-path="url(#id_0)"
     d="M 145,247 H 79 V 91 c 0,-1.10457 0.89543,-2 2,-2 h 62 c 1.10457,0 2,0.89543 2,2 z"
     fill-rule="nonzero"
     id="path8" />
  <path
     fill="#4285f4"
     clip-path="url(#id_0)"
     d="M 145,247 H 79 V 91 c 0,-1.10457 0.89543,-2 2,-2 h 62 c 1.10457,0 2,0.89543 2,2 z"
     fill-rule="nonzero"
     id="path9"
     transform="translate(86)" />
  <path
     stroke="#000000"
     stroke-width="2"
     stroke-linecap="butt"
     stroke-opacity="0"
     clip-path="url(#id_0)"
     d="m 246,247 h -66 v -13 c 0,-1.10457 0.89543,-2 2,-2 h 62 c 1.10457,0 2,0.89543 2,2 z"
     fill-rule="nonzero"
     id="path10" />
  <path
     fill="#4285f4"
     clip-path="url(#id_0)"
     d="m 246,247 h -66 v -13 c 0,-1.10457 0.89543,-2 2,-2 h 62 c 1.10457,0 2,0.89543 2,2 z"
     fill-rule="nonzero"
     id="path11"
     transform="translate(98)" />
  <path
     stroke="#000000"
     stroke-width="2"
     stroke-linecap="butt"
     stroke-opacity="0"
     clip-path="url(#id_0)"
     d="m 347,247 h -66 v -28 c 0,-1.10457 0.89542,-2 2,-2 h 62 c 1.10458,0 2,0.89543 2,2 z"
     fill-rule="nonzero"
     id="path12" />
  <path
     fill="#4285f4"
     clip-path="url(#id_0)"
     d="m 347,247 h -66 v -28 c 0,-1.10457 0.89542,-2 2,-2 h 62 c 1.10458,0 2,0.89543 2,2 z"
     fill-rule="nonzero"
     id="path13"
     transform="translate(118)" />
  <path
     stroke="#000000"
     stroke-width="2"
     stroke-linecap="butt"
     stroke-opacity="0"
     clip-path="url(#id_0)"
     d="m 447,247 h -66 v -2 c 0,-1.10457 0.89542,-2 2,-2 h 62 c 1.10458,0 2,0.89543 2,2 z"
     fill-rule="nonzero"
     id="path14" />
  <path
     stroke="#000000"
     stroke-width="2"
     stroke-linecap="butt"
     stroke-opacity="0"
     clip-path="url(#id_0)"
     d="m 548,247 h -66 v -1 c 0,-0.55229 0.44772,-1 1,-1 h 64 c 0.5523,0 1,0.44771 1,1 z"
     fill-rule="nonzero"
     id="path16" />
  <path
     fill="#000000"
     d="m 30.95,246.31563 q 0,-1.53125 0.3125,-2.45313 0.3125,-0.9375 0.921876,-1.4375 0.625,-0.5 1.5625,-0.5 0.6875,0 1.203124,0.28125 0.53125,0.28125 0.875,0.8125 0.34375,0.51563 0.53125,1.26563 0.1875,0.75 0.1875,2.03125 0,1.51562 -0.3125,2.4375 -0.296874,0.92187 -0.921874,1.4375 -0.609376,0.5 -1.5625,0.5 -1.234376,0 -1.953126,-0.89063 Q 30.95,248.7375 30.95,246.31563 Z m 1.078126,0 q 0,2.10937 0.5,2.8125 0.5,0.70312 1.21875,0.70312 0.734374,0 1.21875,-0.70312 0.5,-0.70313 0.5,-2.8125 0,-2.125 -0.5,-2.8125 Q 34.48125,242.8 33.73125,242.8 q -0.71875,0 -1.15625,0.60938 -0.546874,0.78125 -0.546874,2.90625 z"
     fill-rule="nonzero"
     id="path19"
     style="fill:#ffffff" />
  <path
     fill="#000000"
     d="m 29.496876,208.50104 v 1.01562 h -5.6875 q 0,-0.375 0.125,-0.73437 0.21875,-0.57813 0.6875,-1.14063 0.484374,-0.5625 1.390624,-1.29687 1.40625,-1.15625 1.890626,-1.82813 0.5,-0.67187 0.5,-1.26562 0,-0.625 -0.453126,-1.04688 -0.453124,-0.4375 -1.171874,-0.4375 -0.765626,0 -1.21875,0.45313 -0.453126,0.45312 -0.46875,1.26562 L 24.0125,203.37604 q 0.109376,-1.21875 0.828126,-1.84375 0.734374,-0.64063 1.96875,-0.64063 1.234374,0 1.953124,0.6875 0.71875,0.6875 0.71875,1.70313 0,0.51562 -0.21875,1.01562 -0.203124,0.48438 -0.703124,1.04688 -0.484376,0.54687 -1.609376,1.5 -0.953124,0.79687 -1.234374,1.09375 -0.265626,0.28125 -0.4375,0.5625 z m 1.453124,-1.23438 1.109376,-0.0937 q 0.125,0.8125 0.5625,1.21875 0.453124,0.40625 1.09375,0.40625 0.75,0 1.28125,-0.57812 0.53125,-0.57813 0.53125,-1.51563 0,-0.90625 -0.515626,-1.42187 -0.5,-0.53125 -1.328124,-0.53125 -0.5,0 -0.921876,0.23437 -0.40625,0.23438 -0.640624,0.59375 l -0.984376,-0.125 0.828126,-4.40625 h 4.28125 v 1 h -3.4375 l -0.453126,2.3125 q 0.765626,-0.54687 1.609376,-0.54687 1.125,0 1.890624,0.78125 0.78125,0.78125 0.78125,2.01562 0,1.15625 -0.671874,2.01563 -0.828126,1.03125 -2.25,1.03125 -1.171876,0 -1.921876,-0.65625 -0.734374,-0.65625 -0.84375,-1.73438 z"
     fill-rule="nonzero"
     id="path20"
     style="fill:#ffffff" />
  <path
     fill="#000000"
     d="m 23.95,166.23334 1.109376,-0.0937 q 0.125,0.8125 0.5625,1.21875 0.453124,0.40625 1.09375,0.40625 0.75,0 1.28125,-0.57813 0.53125,-0.57812 0.53125,-1.51562 0,-0.90625 -0.515626,-1.42188 -0.5,-0.53125 -1.328124,-0.53125 -0.5,0 -0.921876,0.23438 -0.40625,0.23437 -0.640624,0.59375 l -0.984376,-0.125 0.828126,-4.40625 h 4.28125 v 1 h -3.4375 l -0.453126,2.3125 q 0.765626,-0.54688 1.609376,-0.54688 1.125,0 1.890624,0.78125 0.78125,0.78125 0.78125,2.01563 0,1.15625 -0.671874,2.01562 -0.828126,1.03125 -2.25,1.03125 -1.171876,0 -1.921876,-0.65625 -0.734374,-0.65625 -0.84375,-1.73437 z m 7,-1.98438 q 0,-1.53125 0.3125,-2.45312 0.3125,-0.9375 0.921876,-1.4375 0.625,-0.5 1.5625,-0.5 0.6875,0 1.203124,0.28125 0.53125,0.28125 0.875,0.8125 0.34375,0.51562 0.53125,1.26562 0.1875,0.75 0.1875,2.03125 0,1.51563 -0.3125,2.4375 -0.296874,0.92188 -0.921874,1.4375 -0.609376,0.5 -1.5625,0.5 -1.234376,0 -1.953126,-0.89062 Q 30.95,166.67084 30.95,164.24896 Z m 1.078126,0 q 0,2.10938 0.5,2.8125 0.5,0.70313 1.21875,0.70313 0.734374,0 1.21875,-0.70313 0.5,-0.70312 0.5,-2.8125 0,-2.125 -0.5,-2.8125 -0.484376,-0.70312 -1.234376,-0.70312 -0.71875,0 -1.15625,0.60937 -0.546874,0.78125 -0.546874,2.90625 z"
     fill-rule="nonzero"
     id="path21"
     style="fill:#ffffff" />
  <path
     fill="#000000"
     d="m 24.0125,119.98125 v -1.01563 h 5.5625 v 0.82813 q -0.8125,0.875 -1.625,2.32812 -0.796874,1.4375 -1.234374,2.96875 -0.328126,1.07813 -0.40625,2.35938 h -1.09375 q 0.01562,-1.01563 0.390624,-2.45313 0.390626,-1.4375 1.09375,-2.76562 0.71875,-1.32813 1.53125,-2.25 z M 30.95,125.2 l 1.109376,-0.0937 q 0.125,0.8125 0.5625,1.21875 0.453124,0.40625 1.09375,0.40625 0.75,0 1.28125,-0.57813 0.53125,-0.57812 0.53125,-1.51562 0,-0.90625 -0.515626,-1.42188 -0.5,-0.53125 -1.328124,-0.53125 -0.5,0 -0.921876,0.23438 -0.40625,0.23437 -0.640624,0.59375 l -0.984376,-0.125 0.828126,-4.40625 h 4.28125 v 1 h -3.4375 l -0.453126,2.3125 q 0.765626,-0.54688 1.609376,-0.54688 1.125,0 1.890624,0.78125 0.78125,0.78125 0.78125,2.01563 0,1.15625 -0.671874,2.01562 -0.828126,1.03125 -2.25,1.03125 -1.171876,0 -1.921876,-0.65625 Q 31.059376,126.27812 30.95,125.2 Z"
     fill-rule="nonzero"
     id="path22"
     style="fill:#ffffff" />
  <path
     fill="#000000"
     d="m 20.91875,86.416664 h -1.046874 v -6.71875 Q 19.48125,80.05729 18.85625,80.43229 18.246876,80.791664 17.7625,80.96354 v -1.015626 q 0.875,-0.421874 1.53125,-1 0.671876,-0.59375 0.953126,-1.15625 H 20.91875 Z M 23.95,82.18229 q 0,-1.53125 0.3125,-2.453126 0.3125,-0.9375 0.921876,-1.4375 0.625,-0.5 1.5625,-0.5 0.6875,0 1.203124,0.28125 0.53125,0.28125 0.875,0.8125 0.34375,0.515626 0.53125,1.265626 0.1875,0.75 0.1875,2.03125 0,1.515624 -0.3125,2.4375 -0.296874,0.921874 -0.921874,1.4375 -0.609376,0.5 -1.5625,0.5 -1.234376,0 -1.953126,-0.890626 Q 23.95,84.604164 23.95,82.18229 Z m 1.078126,0 q 0,2.109374 0.5,2.8125 0.5,0.703124 1.21875,0.703124 0.734374,0 1.21875,-0.703124 0.5,-0.703126 0.5,-2.8125 0,-2.125 -0.5,-2.8125 -0.484376,-0.703126 -1.234376,-0.703126 -0.71875,0 -1.15625,0.609376 -0.546874,0.78125 -0.546874,2.90625 z m 5.921874,0 q 0,-1.53125 0.3125,-2.453126 0.3125,-0.9375 0.921876,-1.4375 0.625,-0.5 1.5625,-0.5 0.6875,0 1.203124,0.28125 0.53125,0.28125 0.875,0.8125 0.34375,0.515626 0.53125,1.265626 0.1875,0.75 0.1875,2.03125 0,1.515624 -0.3125,2.4375 -0.296874,0.921874 -0.921874,1.4375 -0.609376,0.5 -1.5625,0.5 -1.234376,0 -1.953126,-0.890626 Q 30.95,84.604164 30.95,82.18229 Z m 1.078126,0 q 0,2.109374 0.5,2.8125 0.5,0.703124 1.21875,0.703124 0.734374,0 1.21875,-0.703124 0.5,-0.703126 0.5,-2.8125 0,-2.125 -0.5,-2.8125 -0.484376,-0.703126 -1.234376,-0.703126 -0.71875,0 -1.15625,0.609376 -0.546874,0.78125 -0.546874,2.90625 z"
     fill-rule="nonzero"
     id="path23"
     style="fill:#ffffff" />
  <path
     fill="#000000"
     d="m 162.53096,269.54108 v -14.58484 h 6.47036 q 1.96232,0 2.97,0.39776 1.00768,0.39778 1.61758,1.40546 0.60992,0.98115 0.60992,2.17448 0,1.56453 -1.00768,2.62524 -1.00768,1.06072 -3.1026,1.35242 0.76903,0.37127 1.16679,0.71596 0.84857,0.76904 1.59107,1.93583 l 2.54572,3.97769 h -2.43965 l -1.90928,-3.02305 q -0.84857,-1.32588 -1.40544,-2.01536 -0.53036,-0.68945 -0.98117,-0.95464 -0.42429,-0.29171 -0.87508,-0.42429 -0.31822,-0.053 -1.06072,-0.053 h -2.25402 v 6.47036 z m 1.9358,-8.14102 h 4.16331 q 1.29937,0 2.04187,-0.26517 0.76902,-0.29167 1.14027,-0.87508 0.39776,-0.60992 0.39776,-1.32587 0,-1.03424 -0.76901,-1.69715 -0.7425,-0.66297 -2.3601,-0.66297 h -4.6141 z m 20.31268,4.74674 1.85625,0.21214 q -0.42428,1.61755 -1.61758,2.51917 -1.19331,0.90159 -3.02303,0.90159 -2.30707,0 -3.686,-1.43195 -1.3524,-1.43198 -1.3524,-4.00417 0,-2.65178 1.37893,-4.11031 1.37893,-1.485 3.55339,-1.485 2.12143,0 3.44733,1.43198 1.3524,1.43195 1.3524,4.05726 0,0.15902 0,0.47731 h -7.8758 q 0.10607,1.75019 0.98115,2.67829 0.8751,0.90159 2.201,0.90159 0.98115,0 1.67061,-0.50381 0.71599,-0.53036 1.11375,-1.64409 z m -5.86044,-2.89048 h 5.88697 q -0.10607,-1.35238 -0.66296,-2.01535 -0.87508,-1.03418 -2.2275,-1.03418 -1.24633,0 -2.0949,0.82203 -0.82206,0.82207 -0.90161,2.2275 z m 10.47455,6.28476 v -14.58484 h 1.80322 v 14.58484 z m 5.14447,-12.51643 v -2.06841 h 1.80321 v 2.06841 z m 0,12.51643 v -10.55412 h 1.80321 v 10.55412 z m 12.30429,-3.39428 1.85625,0.21214 q -0.42429,1.61755 -1.61758,2.51917 -1.19331,0.90159 -3.02304,0.90159 -2.30706,0 -3.68599,-1.43195 -1.3524,-1.43198 -1.3524,-4.00417 0,-2.65178 1.37893,-4.11031 1.37892,-1.485 3.55339,-1.485 2.12143,0 3.44732,1.43198 1.35241,1.43195 1.35241,4.05726 0,0.15902 0,0.47731 h -7.8758 q 0.10607,1.75019 0.98115,2.67829 0.8751,0.90159 2.20099,0.90159 0.98115,0 1.67062,-0.50381 0.71599,-0.53036 1.11375,-1.64409 z m -5.86044,-2.89048 h 5.88697 q -0.10608,-1.35238 -0.66296,-2.01535 -0.87508,-1.03418 -2.2275,-1.03418 -1.24633,0 -2.0949,0.82203 -0.82207,0.82207 -0.90161,2.2275 z m 13.44455,6.28476 -4.00419,-10.55412 h 1.88276 l 2.28054,6.31127 q 0.34474,1.03417 0.66295,2.12142 0.23865,-0.82209 0.66294,-1.98888 l 2.3601,-6.44381 h 1.82972 l -4.00419,10.55412 z m 12.78161,-3.39428 1.85625,0.21214 q -0.42428,1.61755 -1.61758,2.51917 -1.19331,0.90159 -3.02304,0.90159 -2.30706,0 -3.68599,-1.43195 -1.3524,-1.43198 -1.3524,-4.00417 0,-2.65178 1.37893,-4.11031 1.37893,-1.485 3.55339,-1.485 2.12143,0 3.44732,1.43198 1.35241,1.43195 1.35241,4.05726 0,0.15902 0,0.47731 h -7.8758 q 0.10607,1.75019 0.98115,2.67829 0.8751,0.90159 2.20099,0.90159 0.98116,0 1.67062,-0.50381 0.71599,-0.53036 1.11375,-1.64409 z m -5.86044,-2.89048 h 5.88697 q -0.10607,-1.35238 -0.66296,-2.01535 -0.87508,-1.03418 -2.2275,-1.03418 -1.24633,0 -2.0949,0.82203 -0.82206,0.82207 -0.90161,2.2275 z m 17.36921,6.28476 v -1.32591 q -1.00768,1.56453 -2.94349,1.56453 -1.27286,0 -2.33357,-0.68944 -1.06072,-0.71596 -1.64411,-1.96234 -0.58339,-1.24632 -0.58339,-2.86393 0,-1.56453 0.53036,-2.86393 0.53035,-1.29934 1.59107,-1.96231 1.06071,-0.68948 2.3601,-0.68948 0.95464,0 1.69714,0.39781 0.7425,0.39774 1.21982,1.03417 v -5.22401 h 1.77669 v 14.58484 z m -5.64831,-5.27709 q 0,2.0419 0.84857,3.04959 0.84857,0.98112 2.01536,0.98112 1.16678,0 1.98885,-0.95464 0.82204,-0.95464 0.82204,-2.91695 0,-2.17448 -0.84857,-3.18214 -0.82204,-1.0077 -2.04187,-1.0077 -1.19331,0 -1.98885,0.98119 -0.79553,0.95464 -0.79553,3.04953 z"
     fill-rule="nonzero"
     id="path24"
     style="fill:#ffffff;fill-opacity:1;stroke-width:1.69714" />
  <path
     fill="#000000"
     d="m 290.1976,254.95624 h 1.86828 v 8.1385 q 0,2.12418 -0.48627,3.37824 -0.48625,1.22846 -1.74031,2.02181 -1.25403,0.76776 -3.27587,0.76776 -1.97063,0 -3.25026,-0.66539 -1.25406,-0.69098 -1.79149,-1.97064 -0.53746,-1.30523 -0.53746,-3.53178 v -8.1385 h 1.86828 v 8.11289 q 0,1.84267 0.33269,2.71281 0.3583,0.87017 1.17727,1.35644 0.84457,0.46068 2.04742,0.46068 2.04742,0 2.91757,-0.92133 0.87015,-0.94696 0.87015,-3.6086 z m 5.29771,14.07602 v -10.18593 h 1.53556 v 1.4332 q 1.12608,-1.66355 3.25027,-1.66355 0.92134,0 1.68912,0.33273 0.79338,0.33269 1.17726,0.87016 0.3839,0.53741 0.53746,1.25401 0.0768,0.4863 0.0768,1.68913 v 6.27025 h -1.71471 v -6.19346 q 0,-1.07488 -0.20474,-1.58673 -0.20474,-0.51186 -0.7166,-0.81897 -0.51185,-0.33273 -1.20286,-0.33273 -1.10048,0 -1.91945,0.7166 -0.79338,0.69101 -0.79338,2.63606 v 5.57923 z m 10.77453,-3.04558 1.68912,-0.25591 q 0.15347,1.02371 0.79338,1.56118 0.66541,0.53741 1.86826,0.53741 1.17726,0 1.7403,-0.46066 0.58865,-0.48623 0.58865,-1.15166 0,-0.58864 -0.51186,-0.92134 -0.3583,-0.23036 -1.76591,-0.58864 -1.89386,-0.48624 -2.63604,-0.81897 -0.71659,-0.35831 -1.10049,-0.97254 -0.38389,-0.61422 -0.38389,-1.38199 0,-0.66542 0.30712,-1.25403 0.30711,-0.58864 0.84455,-0.97251 0.40948,-0.28156 1.10049,-0.4863 0.691,-0.20474 1.50997,-0.20474 1.17726,0 2.07302,0.35831 0.92133,0.33273 1.3564,0.92134 0.43509,0.58864 0.58864,1.56118 l -1.68912,0.23029 q -0.10237,-0.76776 -0.66541,-1.20283 -0.53745,-0.46065 -1.56116,-0.46065 -1.17727,0 -1.68912,0.40948 -0.51186,0.38387 -0.51186,0.92134 0,0.33266 0.20474,0.58861 0.23035,0.28152 0.66542,0.46065 0.25592,0.10237 1.53556,0.4351 1.84268,0.51185 2.55927,0.81897 0.7166,0.30711 1.12608,0.89572 0.40949,0.58867 0.40949,1.48439 0,0.87014 -0.51186,1.63794 -0.48625,0.74221 -1.43319,1.17725 -0.94692,0.40948 -2.14979,0.40948 -1.99623,0 -3.04553,-0.81897 -1.02371,-0.84452 -1.30523,-2.4569 z m 18.83624,3.04558 v -1.51002 q -1.20285,1.74031 -3.25026,1.74031 -0.89576,0 -1.68912,-0.33266 -0.76779,-0.35832 -1.15169,-0.87017 -0.38388,-0.53748 -0.53743,-1.30524 -0.10238,-0.48624 -0.10238,-1.61232 v -6.29583 h 1.74031 v 5.65599 q 0,1.33082 0.10237,1.81709 0.15348,0.66543 0.66541,1.07491 0.53744,0.38387 1.33082,0.38387 0.76779,0 1.4332,-0.38387 0.69099,-0.40948 0.97252,-1.10053 0.30711,-0.69098 0.30711,-1.99621 v -5.45125 h 1.71471 v 10.18593 z m 4.76025,0 v -10.18593 h 1.56117 v 1.53557 q 0.58862,-1.07488 1.07489,-1.40761 0.51185,-0.35831 1.12608,-0.35831 0.87015,0 1.76589,0.53747 l -0.58862,1.61231 q -0.63983,-0.38386 -1.25406,-0.38386 -0.58862,0 -1.04929,0.35831 -0.43508,0.33267 -0.61423,0.94689 -0.30711,0.92134 -0.30711,1.99625 v 5.34891 z m 13.53856,-3.27587 1.79149,0.20474 q -0.40948,1.56111 -1.56116,2.43128 -1.15167,0.87014 -2.91757,0.87014 -2.22656,0 -3.55738,-1.38199 -1.30524,-1.38202 -1.30524,-3.86448 0,-2.55927 1.33082,-3.96691 1.33082,-1.43319 3.42943,-1.43319 2.04741,0 3.32705,1.38202 1.30524,1.38199 1.30524,3.91571 0,0.15348 0,0.46065 h -7.60105 q 0.10237,1.68914 0.94694,2.58486 0.84455,0.87014 2.12419,0.87014 0.94694,0 1.61235,-0.48624 0.69099,-0.51185 1.07489,-1.58673 z m -5.656,-2.78963 h 5.68159 q -0.10237,-1.30521 -0.63981,-1.94505 -0.84457,-0.99809 -2.14979,-0.99809 -1.20287,0 -2.02184,0.79335 -0.79336,0.79338 -0.87015,2.14979 z"
     fill-rule="nonzero"
     id="path25"
     style="fill:#ffffff;stroke-width:1.63793" />
  <path
     fill="#000000"
     d="m 404.42188,268.27862 v -13.32238 h 1.79245 l 7.0003,10.46411 v -10.46411 h 1.69558 v 13.32238 h -1.8167 l -7.00029,-10.46411 v 10.46411 z m 20.34689,-3.10048 1.69556,0.19378 q -0.38756,1.47754 -1.47757,2.30112 -1.09,0.82355 -2.76136,0.82355 -2.10735,0 -3.36692,-1.308 -1.23535,-1.30803 -1.23535,-3.65757 0,-2.42225 1.25957,-3.75453 1.25957,-1.35646 3.24581,-1.35646 1.9378,0 3.14892,1.30803 1.23536,1.308 1.23536,3.70607 0,0.14525 0,0.43598 h -7.19409 q 0.0969,1.5987 0.89624,2.44647 0.79934,0.82355 2.01046,0.82355 0.89624,0 1.52601,-0.46021 0.65401,-0.48445 1.01736,-1.50178 z m -5.35318,-2.64027 h 5.37739 q -0.0969,-1.23532 -0.60555,-1.84091 -0.79935,-0.94465 -2.03469,-0.94465 -1.13846,0 -1.91358,0.75087 -0.75091,0.75091 -0.82357,2.03469 z m 15.9384,5.74075 v -1.42916 q -1.13847,1.64713 -3.07627,1.64713 -0.84778,0 -1.59866,-0.31486 -0.7267,-0.33913 -1.09002,-0.82358 -0.36333,-0.50869 -0.50868,-1.23535 -0.0969,-0.46021 -0.0969,-1.526 v -5.95874 h 1.64712 v 5.35316 q 0,1.25957 0.0969,1.7198 0.14542,0.6298 0.6298,1.01736 0.50867,0.36332 1.25957,0.36332 0.72666,0 1.35646,-0.36332 0.654,-0.38756 0.92044,-1.0416 0.29067,-0.65399 0.29067,-1.88934 v -5.15938 h 1.62292 v 9.64056 z m 8.09031,-1.45335 0.24222,1.42911 q -0.70244,0.14525 -1.23535,0.14525 -0.89623,0 -1.38068,-0.26642 -0.48445,-0.29067 -0.70244,-0.7509 -0.19378,-0.46021 -0.19378,-1.9378 v -5.54694 h -1.18691 V 258.638 h 1.18691 v -2.39804 l 1.6229,-0.9689 v 3.36694 h 1.64713 v 1.25957 h -1.64713 v 5.64383 q 0,0.70247 0.0727,0.89625 0.0969,0.19378 0.29067,0.31486 0.19378,0.12107 0.55713,0.12107 0.29067,0 0.72667,-0.0484 z m 1.06579,1.45335 v -9.64056 h 1.47758 v 1.45335 q 0.55711,-1.01733 1.01733,-1.33225 0.48444,-0.33913 1.06578,-0.33913 0.82358,0 1.67136,0.5087 l -0.55711,1.52599 q -0.60557,-0.36331 -1.18691,-0.36331 -0.5571,0 -0.99312,0.33913 -0.41178,0.31485 -0.58134,0.89619 -0.29067,0.87201 -0.29067,1.88937 v 5.06252 z m 12.52303,-1.18692 q -0.92047,0.77512 -1.76825,1.09003 -0.82356,0.31486 -1.79246,0.31486 -1.59869,0 -2.44647,-0.77512 -0.84779,-0.77512 -0.84779,-1.98623 0,-0.70245 0.31488,-1.28379 0.3149,-0.60558 0.8478,-0.94468 0.53289,-0.36331 1.18689,-0.53291 0.46024,-0.14526 1.45335,-0.26642 1.96203,-0.21803 2.9067,-0.55713 0,-0.33913 0,-0.41177 0,-1.01733 -0.46022,-1.42914 -0.62978,-0.53291 -1.86514,-0.53291 -1.13845,0 -1.69556,0.41181 -0.55712,0.38756 -0.82358,1.40492 l -1.59867,-0.21803 q 0.218,-1.01736 0.72666,-1.64713 0.50868,-0.6298 1.45335,-0.9689 0.94469,-0.33913 2.18004,-0.33913 1.23534,0 2.01046,0.29067 0.77512,0.29067 1.13845,0.72669 0.36334,0.43599 0.50868,1.11422 0.0727,0.41181 0.0727,1.50181 v 2.18001 q 0,2.27693 0.0969,2.88251 0.12107,0.60553 0.43602,1.16268 h -1.71981 q -0.24222,-0.50869 -0.31488,-1.18692 z m -0.14541,-3.65757 q -0.89623,0.36331 -2.66446,0.62976 -1.01736,0.14542 -1.42913,0.33914 -0.41178,0.16953 -0.65402,0.50863 -0.21799,0.33913 -0.21799,0.77512 0,0.65404 0.48445,1.09003 0.50866,0.43602 1.45334,0.43602 0.94469,0 1.67135,-0.4118 0.7509,-0.41178 1.09002,-1.13844 0.26644,-0.55715 0.26644,-1.62294 z m 4.65071,4.84449 v -13.32238 h 1.64713 v 13.32238 z"
     fill-rule="nonzero"
     id="path26"
     style="fill:#ffffff;stroke-width:1.55024" />
  <path
     fill="#757575"
     d="M 72.05937,35.45 V 21.1375 H 73.95 v 5.875 h 7.4375 v -5.875 h 1.89062 V 35.45 H 81.3875 V 28.7 H 73.95 v 6.75 z m 12.0625,-5.1875 c 0,-1.916667 0.53125,-3.338541 1.59375,-4.265624 0.89583,-0.770833 1.98438,-1.15625 3.26563,-1.15625 1.42708,0 2.58854,0.46875 3.48437,1.40625 0.90625,0.9375 1.35938,2.229167 1.35938,3.875 0,1.333333 -0.19792,2.385417 -0.59375,3.15625 -0.39583,0.760416 -0.97917,1.354166 -1.75,1.78125 -0.76042,0.416667 -1.59375,0.625 -2.5,0.625 -1.45833,0 -2.63542,-0.463542 -3.53125,-1.390626 -0.88542,-0.9375 -1.32813,-2.28125 -1.32813,-4.03125 z m 1.79688,0 c 0,1.333333 0.28646,2.328125 0.85937,2.984376 0.58333,0.656249 1.31771,0.984374 2.20313,0.984374 0.875,0 1.59896,-0.328125 2.17187,-0.984374 0.58333,-0.666667 0.875,-1.682292 0.875,-3.046876 0,-1.281249 -0.29167,-2.249999 -0.875,-2.90625 -0.58333,-0.666667 -1.30729,-1 -2.17187,-1 -0.88542,0 -1.6198,0.333333 -2.20313,1 -0.57291,0.656251 -0.85937,1.645834 -0.85937,2.96875 z M 97.68437,35.45 94.5125,25.075 h 1.8125 l 1.65625,5.984376 0.60937,2.234374 c 0.0312,-0.114583 0.20834,-0.828124 0.53125,-2.140624 L 100.77812,25.075 h 1.8125 l 1.54688,6.015626 0.51562,1.984374 0.59375,-2 1.78125,-6 h 1.70313 l -3.23438,10.375 h -1.82812 L 102.0125,29.23125 101.62187,27.465626 99.5125,35.45 Z m 21,0 -3.17187,-10.375 h 1.8125 l 1.65625,5.984376 0.60937,2.234374 c 0.0312,-0.114583 0.20834,-0.828124 0.53125,-2.140624 L 121.77812,25.075 h 1.8125 l 1.54688,6.015626 0.51562,1.984374 0.59375,-2 1.78125,-6 h 1.70313 l -3.23438,10.375 h -1.82812 L 123.0125,29.23125 122.62187,27.465626 120.5125,35.45 Z m 12.4375,-5.1875 c 0,-1.916667 0.53125,-3.338541 1.59375,-4.265624 0.89583,-0.770833 1.98438,-1.15625 3.26563,-1.15625 1.42708,0 2.58854,0.46875 3.48437,1.40625 0.90625,0.9375 1.35938,2.229167 1.35938,3.875 0,1.333333 -0.19792,2.385417 -0.59375,3.15625 -0.39583,0.760416 -0.97917,1.354166 -1.75,1.78125 -0.76042,0.416667 -1.59375,0.625 -2.5,0.625 -1.45833,0 -2.63542,-0.463542 -3.53125,-1.390626 -0.88542,-0.9375 -1.32813,-2.28125 -1.32813,-4.03125 z m 1.79688,0 c 0,1.333333 0.28646,2.328125 0.85937,2.984376 0.58333,0.656249 1.31771,0.984374 2.20313,0.984374 0.875,0 1.59896,-0.328125 2.17187,-0.984374 0.58333,-0.666667 0.875,-1.682292 0.875,-3.046876 0,-1.281249 -0.29167,-2.249999 -0.875,-2.90625 -0.58333,-0.666667 -1.30729,-1 -2.17187,-1 -0.88542,0 -1.6198,0.333333 -2.20313,1 -0.57291,0.656251 -0.85937,1.645834 -0.85937,2.96875 z m 16.64062,5.1875 v -1.53125 c -0.80208,1.177084 -1.89583,1.765626 -3.28125,1.765626 -0.61458,0 -1.1875,-0.114583 -1.71875,-0.34375 -0.53125,-0.239584 -0.92708,-0.536459 -1.1875,-0.890626 -0.25,-0.354167 -0.42708,-0.791667 -0.53125,-1.3125 -0.0729,-0.343749 -0.10937,-0.890624 -0.10937,-1.640624 V 25.075 h 1.75 v 5.75 c 0,0.916667 0.0365,1.536459 0.10937,1.859376 0.11459,0.458333 0.34896,0.822917 0.70313,1.09375 0.36458,0.260416 0.80729,0.390624 1.32812,0.390624 0.53125,0 1.02605,-0.135417 1.48438,-0.40625 0.46875,-0.270833 0.79687,-0.635417 0.98437,-1.09375 0.19792,-0.468749 0.29688,-1.145833 0.29688,-2.03125 V 25.075 h 1.75 V 35.45 Z m 3.17188,0 V 21.1375 h 1.75 V 35.45 Z m 10.76562,0 v -1.3125 c -0.65625,1.031251 -1.625,1.546876 -2.90625,1.546876 -0.82291,0 -1.58333,-0.229167 -2.28125,-0.6875 -0.6875,-0.458333 -1.22396,-1.09375 -1.60937,-1.90625 -0.375,-0.8125 -0.5625,-1.75 -0.5625,-2.8125 0,-1.041667 0.17187,-1.984375 0.51562,-2.828126 0.34375,-0.843749 0.85938,-1.489583 1.54688,-1.9375 0.69791,-0.447916 1.46875,-0.671874 2.3125,-0.671874 0.625,0 1.18229,0.135417 1.67187,0.40625 0.48959,0.260416 0.89063,0.598957 1.20313,1.015624 v -5.125 h 1.73437 V 35.45 Z m -5.5625,-5.171874 c 0,1.322916 0.28125,2.312499 0.84375,2.96875 0.5625,0.656249 1.22396,0.984374 1.98438,0.984374 0.77083,0 1.42187,-0.3125 1.95312,-0.9375 0.54167,-0.625 0.8125,-1.583333 0.8125,-2.875 0,-1.416667 -0.27604,-2.458333 -0.82812,-3.125 -0.54167,-0.666667 -1.21354,-1 -2.01563,-1 -0.78125,0 -1.4375,0.322917 -1.96875,0.96875 -0.52083,0.635417 -0.78125,1.640626 -0.78125,3.015626 z m 15.75,9.171874 -0.1875,-1.65625 c 0.38542,0.104167 0.71875,0.15625 1,0.15625 0.39583,0 0.70833,-0.06771 0.9375,-0.203124 0.23959,-0.125 0.4323,-0.302083 0.57813,-0.53125 0.11458,-0.177084 0.29687,-0.614584 0.54687,-1.3125 0.0312,-0.104167 0.0833,-0.25 0.15625,-0.4375 L 172.77812,25.075 h 1.89063 l 2.15625,6.015626 c 0.28125,0.760416 0.53125,1.557291 0.75,2.390624 0.20833,-0.802083 0.44792,-1.588541 0.71875,-2.359374 L 180.5125,25.075 h 1.76562 L 178.325,35.621876 c -0.41667,1.145833 -0.74479,1.932291 -0.98438,2.359374 -0.3125,0.583333 -0.67187,1.005209 -1.07812,1.265626 -0.39583,0.270833 -0.875,0.40625 -1.4375,0.40625 -0.34375,0 -0.72396,-0.06771 -1.14063,-0.203126 z m 9.4375,-9.1875 c 0,-1.916667 0.53125,-3.338541 1.59375,-4.265624 0.89583,-0.770833 1.98438,-1.15625 3.26563,-1.15625 1.42708,0 2.58854,0.46875 3.48437,1.40625 0.90625,0.9375 1.35938,2.229167 1.35938,3.875 0,1.333333 -0.19792,2.385417 -0.59375,3.15625 -0.39583,0.760416 -0.97917,1.354166 -1.75,1.78125 -0.76042,0.416667 -1.59375,0.625 -2.5,0.625 -1.45833,0 -2.63542,-0.463542 -3.53125,-1.390626 -0.88542,-0.9375 -1.32813,-2.28125 -1.32813,-4.03125 z m 1.79688,0 c 0,1.333333 0.28646,2.328125 0.85937,2.984376 0.58333,0.656249 1.31771,0.984374 2.20313,0.984374 0.875,0 1.59896,-0.328125 2.17187,-0.984374 0.58333,-0.666667 0.875,-1.682292 0.875,-3.046876 0,-1.281249 -0.29167,-2.249999 -0.875,-2.90625 -0.58333,-0.666667 -1.30729,-1 -2.17187,-1 -0.88542,0 -1.6198,0.333333 -2.20313,1 -0.57291,0.656251 -0.85937,1.645834 -0.85937,2.96875 z m 16.64062,5.1875 v -1.53125 c -0.80208,1.177084 -1.89583,1.765626 -3.28125,1.765626 -0.61458,0 -1.1875,-0.114583 -1.71875,-0.34375 -0.53125,-0.239584 -0.92708,-0.536459 -1.1875,-0.890626 -0.25,-0.354167 -0.42708,-0.791667 -0.53125,-1.3125 -0.0729,-0.343749 -0.10937,-0.890624 -0.10937,-1.640624 V 25.075 h 1.75 v 5.75 c 0,0.916667 0.0365,1.536459 0.10937,1.859376 0.11459,0.458333 0.34896,0.822917 0.70313,1.09375 0.36458,0.260416 0.80729,0.390624 1.32812,0.390624 0.53125,0 1.02605,-0.135417 1.48438,-0.40625 0.46875,-0.270833 0.79687,-0.635417 0.98437,-1.09375 0.19792,-0.468749 0.29688,-1.145833 0.29688,-2.03125 V 25.075 h 1.75 V 35.45 Z m 9.625,0 v -9 h -1.54687 v -1.375 h 1.54687 v -1.09375 c 0,-0.697916 0.0625,-1.218749 0.1875,-1.5625 0.16667,-0.458333 0.46354,-0.828125 0.89063,-1.109374 0.42708,-0.281251 1.02604,-0.421876 1.79687,-0.421876 0.5,0 1.04688,0.05729 1.64063,0.171876 l -0.26563,1.53125 c -0.36458,-0.0625 -0.70833,-0.09375 -1.03125,-0.09375 -0.53125,0 -0.91145,0.114583 -1.14062,0.34375 -0.21875,0.229167 -0.32813,0.65625 -0.32813,1.28125 V 25.075 h 2.03125 v 1.375 h -2.03125 v 9 z m 12.6875,-3.34375 1.8125,0.234376 c -0.28125,1.052083 -0.8125,1.874999 -1.59375,2.46875 -0.77083,0.583333 -1.76042,0.875 -2.96875,0.875 -1.51041,0 -2.71354,-0.463542 -3.60937,-1.390626 -0.88542,-0.9375 -1.32813,-2.25 -1.32813,-3.9375 0,-1.75 0.44792,-3.104167 1.34375,-4.0625 0.89583,-0.968749 2.0625,-1.453124 3.5,-1.453124 1.38542,0 2.51563,0.473958 3.39063,1.421874 0.88541,0.9375 1.32812,2.265625 1.32812,3.984376 0,0.104167 -0.005,0.260417 -0.0156,0.46875 h -7.73438 c 0.0625,1.135416 0.38542,2.005207 0.96875,2.609374 0.58333,0.604167 1.30729,0.90625 2.17188,0.90625 0.64583,0 1.19271,-0.166667 1.64062,-0.5 0.45833,-0.343749 0.82292,-0.885416 1.09375,-1.625 z m -5.78125,-2.84375 h 5.79688 c -0.0729,-0.864583 -0.29167,-1.515624 -0.65625,-1.953124 -0.5625,-0.677084 -1.29167,-1.015626 -2.1875,-1.015626 -0.80209,0 -1.47917,0.270833 -2.03125,0.8125 -0.55209,0.531251 -0.85938,1.250001 -0.92188,2.15625 z m 16.78128,2.84375 1.8125,0.234376 c -0.28127,1.052083 -0.81252,1.874999 -1.59376,2.46875 -0.77083,0.583333 -1.76041,0.875 -2.96874,0.875 -1.51043,0 -2.71357,-0.463542 -3.6094,-1.390626 -0.88542,-0.9375 -1.32813,-2.25 -1.32813,-3.9375 0,-1.75 0.44792,-3.104167 1.34375,-4.0625 0.89583,-0.968749 2.06251,-1.453124 3.50002,-1.453124 1.38541,0 2.51562,0.473958 3.39062,1.421874 0.88543,0.9375 1.32814,2.265625 1.32814,3.984376 0,0.104167 -0.005,0.260417 -0.0156,0.46875 h -7.73439 c -1.13713,0 0.38542,2.005207 0.96875,2.609374 0.58335,0.604167 1.30731,0.90625 2.17188,0.90625 0.64584,0 1.19272,-0.166667 1.64064,-0.5 0.45833,-0.343749 0.82292,-0.885416 1.09376,-1.625 z m -5.78128,-2.84375 h 5.79688 c 0.86765,0 -0.29165,-1.515624 -0.65624,-1.953124 -0.56251,-0.677084 -1.29167,-1.015626 -2.1875,-1.015626 -0.80208,0 -1.47917,0.270833 -2.03126,0.8125 -0.55209,0.531251 -0.85938,1.250001 -0.92188,2.15625 z m 9.64064,6.1875 V 21.1375 h 1.75 V 35.45 Z M 248.77814,23.153126 V 21.1375 h 1.76562 v 2.015626 z m 0,12.296874 V 25.075 h 1.76562 V 35.45 Z m 4.40626,0 v -9 h -1.5469 v -1.375 h 1.5469 v -1.09375 c 0,-0.697916 0.0625,-1.218749 0.1875,-1.5625 0.16667,-0.458333 0.46353,-0.828125 0.8906,-1.109374 0.42709,-0.281251 1.02606,-0.421876 1.7969,-0.421876 0.5,0 1.74394,-0.423914 1.6406,0.171876 l -0.2656,1.53125 c -0.3646,-0.0625 -0.70835,-0.09375 -1.03126,-0.09375 -0.53125,0 -0.91147,0.114583 -1.14064,0.34375 -0.21873,0.229167 -0.3281,0.65625 -0.3281,1.28125 V 25.075 h 2.03124 v 1.375 h -2.03124 v 9 z m 15.42186,-1.578124 0.25,1.5625 c -0.48957,0.104167 -0.93228,0.15625 -1.32812,0.15625 -0.63543,0 -1.13022,-0.09896 -1.48438,-0.296876 -0.34375,-0.208333 -0.58853,-0.473958 -0.73436,-0.796874 -0.14584,-0.333333 -0.21876,-1.026042 -0.21876,-2.078126 V 26.45 h -1.28124 v -1.375 h 1.28124 v -2.5625 l 1.75,-1.0625 v 3.625 h 1.76562 v 1.375 h -1.76562 v 6.0625 c 0,0.5 0.0312,0.822917 0.0938,0.96875 0.0625,0.135417 0.16145,0.250001 0.29686,0.34375 0.14583,0.08333 0.34895,0.125 0.60938,0.125 0.18751,0 0.44271,-0.02604 0.76562,-0.07812 z M 270.7625,35.45 V 21.1375 h 1.76564 v 5.125 c 0.82291,-0.947916 1.85936,-1.421874 3.10936,-1.421874 0.76043,0 1.42189,0.151041 1.9844,0.453124 0.57291,0.302084 0.97915,0.723959 1.21874,1.265626 0.25,0.531249 0.375,1.302083 0.375,2.3125 V 35.45 h -1.75 v -6.578124 c 0,-0.875 -0.19271,-1.510417 -0.57814,-1.90625 -0.3854,-0.406251 -0.92185,-0.609376 -1.60936,-0.609376 -0.52083,0 -1.01562,0.135417 -1.48438,0.40625 -0.45833,0.270833 -0.78645,0.640625 -0.98436,1.109376 -0.18751,0.458333 -0.28126,1.09375 -0.28126,1.90625 V 35.45 Z m 17.1094,-3.34375 1.8125,0.234376 c -0.28127,1.052083 -0.81252,1.874999 -1.59376,2.46875 -0.77083,0.583333 -1.76041,0.875 -2.96874,0.875 -1.51043,0 -2.71356,-0.463542 -3.6094,-1.390626 -0.8854,-0.9375 -1.3281,-2.25 -1.3281,-3.9375 0,-1.75 0.44791,-3.104167 1.34374,-4.0625 0.89584,-0.968749 2.06251,-1.453124 3.5,-1.453124 1.38541,0 2.51562,0.473958 3.39062,1.421874 0.88543,0.9375 1.32814,2.265625 1.32814,3.984376 0,0.104167 0.193,0.46875 -0.0156,0.46875 h -7.73436 c 0.0625,1.135416 0.38541,2.005207 0.96874,2.609374 0.58333,0.604167 1.30729,0.90625 2.17186,0.90625 0.64584,0 1.19272,-0.166667 1.64064,-0.5 0.45833,-0.343749 0.82292,-0.885416 1.09376,-1.625 z m -5.78126,-2.84375 h 5.79686 c -0.0729,-0.864583 -0.29165,-1.515624 -0.65624,-1.953124 -0.56251,-0.677084 -1.29167,-1.015626 -2.1875,-1.015626 -0.80208,0 -1.47917,0.270833 -2.03126,0.8125 -0.55207,0.531251 -0.85935,1.250001 -0.92186,2.15625 z M 297.9344,35.45 V 21.1375 h 2.85936 l 3.375,10.125 c 0.31249,0.947917 0.54166,1.656251 0.6875,2.125 0.16667,-0.520833 0.42188,-1.286458 0.76564,-2.296874 l 3.42186,-9.953126 h 2.54688 V 35.45 h -1.8125 V 23.465626 L 305.60626,35.45 h -1.70312 L 299.7625,23.2625 V 35.45 Z m 27.28124,-5.015624 1.89062,0.46875 c -0.39584,1.5625 -1.10938,2.755208 -2.14062,3.578124 -1.03125,0.8125 -2.29688,1.21875 -3.79688,1.21875 -1.54167,0 -2.79687,-0.3125 -3.76562,-0.9375 -0.95833,-0.635416 -1.69271,-1.546874 -2.20314,-2.734374 -0.5,-1.197917 -0.75,-2.479167 -0.75,-3.84375 0,-1.489584 0.28125,-2.786459 0.84376,-3.890626 0.57292,-1.114583 1.38542,-1.958333 2.4375,-2.53125 1.05209,-0.583333 2.20834,-0.875 3.46874,-0.875 1.43751,0 2.64064,0.364583 3.6094,1.09375 0.97916,0.729167 1.66145,1.755209 2.04686,3.078126 l -1.85936,0.4375 c -0.33333,-1.041667 -0.81771,-1.796875 -1.45314,-2.265626 -0.625,-0.479167 -1.41667,-0.71875 -2.375,-0.71875 -1.10417,0 -2.02605,0.265625 -2.76562,0.796876 -0.73959,0.520833 -1.26042,1.229167 -1.5625,2.125 -0.29167,0.885416 -0.4375,1.796874 -0.4375,2.734374 0,1.218751 0.17709,2.286459 0.53126,3.203126 0.35416,0.906249 0.90624,1.583333 1.65624,2.03125 0.75,0.447916 1.55729,0.671874 2.42186,0.671874 1.06251,0 1.96355,-0.307291 2.70314,-0.921874 0.73957,-0.614584 1.23957,-1.520834 1.5,-2.71875 z m 2.20312,5.015624 5.5,-14.3125 h 2.04688 L 340.825,35.45 h -2.15624 l -1.67186,-4.34375 h -5.9844 L 329.4344,35.45 Z m 4.14064,-5.875 h 4.84374 l -1.48438,-3.96875 c -0.45833,-1.208333 -0.79687,-2.197917 -1.01562,-2.96875 -0.18749,0.916667 -0.44791,1.828125 -0.78124,2.734376 z m 9.79686,1.28125 L 343.1375,30.7 c 0.0833,0.708333 0.27605,1.291667 0.57814,1.75 0.31251,0.458333 0.79167,0.833333 1.4375,1.125 0.65624,0.281251 1.39583,0.421876 2.21876,0.421876 0.71873,0 1.35415,-0.104167 1.90624,-0.3125 0.55208,-0.218751 0.96353,-0.515626 1.23436,-0.890626 0.27084,-0.375 0.40626,-0.786458 0.40626,-1.234374 0,-0.447917 -0.13021,-0.838543 -0.39062,-1.171876 -0.26043,-0.333333 -0.68751,-0.614583 -1.28124,-0.84375 -0.38543,-0.156249 -1.23959,-0.390624 -2.5625,-0.703124 -1.31251,-0.3125 -2.22917,-0.609375 -2.75,-0.890626 -0.68751,-0.354167 -1.19793,-0.796875 -1.53126,-1.328124 -0.33333,-0.531251 -0.5,-1.125001 -0.5,-1.78125 0,-0.729167 0.20312,-1.40625 0.60936,-2.03125 0.40627,-0.625 1.00523,-1.098959 1.7969,-1.421876 0.79167,-0.333333 1.66667,-0.5 2.625,-0.5 1.06249,0 1.99999,0.171875 2.8125,0.515626 0.81249,0.343749 1.43228,0.848957 1.85936,1.515624 0.43749,0.656251 0.67187,1.406251 0.70314,2.25 l -1.8125,0.140626 c -0.90836,0.07048 -0.42189,-1.588543 -0.9844,-2.046876 -0.56249,-0.468749 -1.39583,-0.703124 -2.5,-0.703124 -1.14583,0 -1.98436,0.213541 -2.5156,0.640624 -0.52084,0.416667 -0.78126,0.916667 -0.78126,1.5 0,0.520833 0.1875,0.947917 0.5625,1.28125 0.36457,0.333333 1.31769,0.671875 2.85936,1.015626 1.54167,0.343749 2.59897,0.645833 3.1719,0.90625 0.83333,0.385416 1.44791,0.874999 1.84374,1.46875 0.39584,0.583333 0.59376,1.260417 0.59376,2.03125 0,0.760416 -0.21875,1.479166 -0.65626,2.15625 -0.43749,0.677083 -1.06771,1.203124 -1.89064,1.578124 -0.81249,0.375 -1.72916,0.5625 -2.75,0.5625 -1.29167,0 -2.375,-0.1875 -3.25,-0.5625 -0.875,-0.385416 -1.5625,-0.958333 -2.0625,-1.71875 -0.5,-0.760416 -0.76041,-1.614583 -0.78124,-2.5625 z m 23.25,3.015626 0.25,1.5625 c 0.0791,0.494243 -0.93228,0.15625 -1.32812,0.15625 -0.63543,0 -1.13022,-0.09896 -1.48438,-0.296876 -0.34375,-0.208333 -0.58853,-0.473958 -0.73436,-0.796874 -0.14584,-0.333333 -0.21876,-1.026042 -0.21876,-2.078126 V 26.45 h -1.28124 v -1.375 h 1.28124 v -2.5625 l 1.75,-1.0625 v 3.625 h 1.76562 v 1.375 h -1.76562 v 6.0625 c 0,0.5 0.0312,0.822917 0.0938,0.96875 0.0625,0.135417 0.16145,0.250001 0.29686,0.34375 0.14583,0.08333 0.34895,0.125 0.60938,0.125 0.18751,0 1.09108,-0.04557 0.76562,-0.07812 z m 9.26564,-1.765626 1.8125,0.234376 c -0.28127,1.052083 -0.81252,1.874999 -1.59376,2.46875 -0.77083,0.583333 -1.76041,0.875 -2.96874,0.875 -1.51043,0 -2.71356,-0.463542 -3.6094,-1.390626 -0.8854,-0.9375 -1.3281,-2.25 -1.3281,-3.9375 0,-1.75 0.44791,-3.104167 1.34374,-4.0625 0.89584,-0.968749 2.06251,-1.453124 3.5,-1.453124 1.38541,0 2.51562,0.473958 3.39062,1.421874 0.88543,0.9375 1.32814,2.265625 1.32814,3.984376 0,0.104167 -0.005,0.260417 -0.0156,0.46875 h -7.73436 c 0.0625,1.135416 0.38541,2.005207 0.96874,2.609374 0.58333,0.604167 1.30729,0.90625 2.17186,0.90625 0.64584,0 1.19272,-0.166667 1.64064,-0.5 0.45833,-0.343749 0.82292,-0.885416 1.09376,-1.625 z m -5.78126,-2.84375 h 5.79686 c -0.0729,-0.864583 -0.29165,-1.515624 -0.65624,-1.953124 -0.56251,-0.677084 -1.29167,-1.015626 -2.1875,-1.015626 -0.80208,0 -1.47917,0.270833 -2.03126,0.8125 -0.55207,0.531251 -1.83026,2.15625 -0.92186,2.15625 z m 8.96876,3.09375 1.75,-0.28125 c 0.0937,0.697917 0.36457,1.234376 0.8125,1.609376 0.44791,0.364583 1.07291,0.546874 1.875,0.546874 0.80207,0 1.39581,-0.161458 1.78124,-0.484374 0.39584,-0.333333 0.59376,-0.71875 0.59376,-1.15625 0,-0.395833 -0.17188,-0.708333 -0.51564,-0.9375 -0.23957,-0.156251 -0.83853,-0.354167 -1.79686,-0.59375 -1.29167,-0.333333 -2.1875,-0.614583 -2.6875,-0.84375 -0.4896,-0.239584 -0.8646,-0.567709 -1.125,-0.984376 -0.26043,-0.427083 -0.39064,-0.895833 -0.39064,-1.40625 0,-0.458333 0.10417,-0.885417 0.3125,-1.28125 0.21876,-0.395833 0.51043,-0.723958 0.875,-0.984374 0.27083,-0.197917 0.64062,-0.364584 1.10938,-0.5 0.47917,-0.145833 0.98959,-0.21875 1.53126,-0.21875 0.81249,0 1.52603,0.119791 2.1406,0.359374 0.6146,0.229167 1.06773,0.546875 1.3594,0.953126 0.29167,0.395833 0.49479,0.927083 0.60936,1.59375 L 383.575,27.98125 c -0.0833,-0.531249 -0.3125,-0.942707 -0.6875,-1.234374 -0.375,-0.302084 -0.90103,-0.453126 -1.5781,-0.453126 -0.81251,0 -1.39064,0.135417 -1.7344,0.40625 -0.34373,0.260417 -0.5156,0.567709 -0.5156,0.921876 0,0.229167 0.0729,0.4375 0.21874,0.625 0.13541,0.1875 0.35937,0.34375 0.67186,0.46875 0.17709,0.0625 0.69273,0.208333 1.5469,0.4375 1.25,0.333333 2.11979,0.609375 2.60936,0.828124 0.48959,0.208333 0.875,0.515625 1.15624,0.921876 0.28127,0.395833 0.4219,0.895833 0.4219,1.5 0,0.583333 -0.17188,1.135417 -0.51564,1.65625 -0.34375,0.520833 -0.83853,0.921875 -1.48436,1.203124 -0.64584,0.281251 -1.37501,0.421876 -2.1875,0.421876 -1.34376,0 -2.36981,-0.28125 -3.07814,-0.84375 -0.70833,-0.5625 -2.45679,-2.308003 -1.35936,-2.484376 z m 14.54686,1.515626 0.25,1.5625 c -0.48957,0.104167 -0.93228,0.15625 -1.32812,0.15625 -0.63543,0 -1.13022,-0.09896 -1.48438,-0.296876 -0.34375,-0.208333 -0.58853,-0.473958 -0.73436,-0.796874 -0.14584,-0.333333 -0.21876,-1.026042 -0.21876,-2.078126 V 26.45 h -1.28124 v -1.375 h 1.28124 v -2.5625 l 1.75,-1.0625 v 3.625 h 1.76562 v 1.375 h -1.76562 v 6.0625 c 0,0.5 0.0312,0.822917 0.0938,0.96875 0.0625,0.135417 0.16145,0.250001 0.29686,0.34375 0.14583,0.08333 0.34895,0.125 0.60938,0.125 0.18751,0 0.44271,-0.02604 0.76562,-0.07812 z M 401.6844,35.45 398.5125,25.075 h 1.8125 l 1.65626,5.984376 0.60938,2.234374 c 0.0312,-0.114583 0.20833,-0.828124 0.53126,-2.140624 L 404.77814,25.075 h 1.8125 l 1.54686,6.015626 0.51564,1.984374 0.59376,-2 1.78124,-6 h 1.70312 L 409.4969,35.45 h -1.82814 L 406.0125,29.23125 405.6219,27.465626 403.5125,35.45 Z m 19.85936,-1.28125 c -0.65624,0.552084 -1.28645,0.942709 -1.89062,1.171876 -0.60416,0.229167 -1.24999,0.34375 -1.9375,0.34375 -1.13543,0 -2.01043,-0.276042 -2.625,-0.828126 -0.61459,-0.5625 -0.92188,-1.276041 -0.92188,-2.140624 0,-0.510417 0.11458,-0.973959 0.34374,-1.390626 0.2396,-0.416667 0.5469,-0.75 0.9219,-1 0.375,-0.260416 0.79687,-0.458333 1.2656,-0.59375 0.34376,-0.08333 0.86459,-0.171875 1.5625,-0.265624 1.41667,-0.166667 2.45833,-0.364583 3.125,-0.59375 0.0104,-0.239584 0.0156,-0.395834 0.0156,-0.46875 0,-0.708333 -0.16667,-1.213542 -0.5,-1.515626 -0.44792,-0.395833 -1.11459,-0.59375 -2,-0.59375 -0.83333,0 -1.44791,0.145833 -1.84374,0.4375 -0.38543,0.291667 -0.67189,0.807292 -0.8594,1.546876 l -1.71874,-0.234376 c -0.74898,-0.102134 0.41147,-1.333333 0.76564,-1.78125 0.35416,-0.458333 0.86978,-0.807291 1.54686,-1.046874 0.67709,-0.25 1.46355,-0.375 2.35938,-0.375 0.88541,0 1.60417,0.104167 2.15626,0.3125 0.55207,0.208333 0.95831,0.473958 1.21874,0.796874 0.26041,0.3125 0.4427,0.708333 0.54686,1.1875 0.0625,0.302084 0.0938,0.843751 0.0938,1.625 v 2.34375 c 0,1.635417 0.0365,2.671876 0.10938,3.109376 0.0729,0.427083 0.91051,1.234374 0.45312,1.234374 h -1.84376 c -0.40531,0 -0.29165,-0.791666 -0.34374,-1.28125 z m -0.15626,-3.921874 c -0.6354,0.260416 -1.59373,0.479166 -2.875,0.65625 -0.71873,0.104167 -1.22915,0.223958 -1.53124,0.359374 -0.29167,0.125 -0.52083,0.3125 -0.6875,0.5625 -0.16667,0.25 -0.25,0.53125 -0.25,0.84375 0,0.468751 0.17708,0.859376 0.53124,1.171876 0.35417,0.3125 0.87501,0.46875 1.5625,0.46875 0.67709,0 1.27606,-0.145833 1.7969,-0.4375 0.53124,-0.302084 0.92186,-0.708334 1.17186,-1.21875 0.18749,-0.406251 0.28124,-0.994793 0.28124,-1.765626 z m 3.6719,2.109374 1.75,-0.28125 c 0.0937,0.697917 0.36457,1.234376 0.8125,1.609376 0.44791,0.364583 1.07291,0.546874 1.875,0.546874 0.80207,0 1.39581,-0.161458 1.78124,-0.484374 0.39584,-0.333333 0.59376,-0.71875 0.59376,-1.15625 0,-0.395833 -0.17188,-0.708333 -0.51564,-0.9375 -0.23957,-0.156251 -0.83853,-0.354167 -1.79686,-0.59375 -1.29167,-0.333333 -2.1875,-0.614583 -2.6875,-0.84375 -0.4896,-0.239584 -0.8646,-0.567709 -1.125,-0.984376 -0.26043,-0.427083 -0.39064,-0.895833 -0.39064,-1.40625 0,-0.458333 0.10417,-0.885417 0.3125,-1.28125 0.21876,-0.395833 0.51043,-0.723958 0.875,-0.984374 0.27083,-0.197917 0.64062,-0.364584 1.10938,-0.5 0.47917,-0.145833 0.98959,-0.21875 1.53126,-0.21875 0.81249,0 1.52603,0.119791 2.1406,0.359374 0.6146,0.229167 1.06773,0.546875 1.3594,0.953126 0.29167,0.395833 0.49479,0.927083 0.60936,1.59375 L 431.575,27.98125 c -0.0833,-0.531249 -0.3125,-0.942707 -0.6875,-1.234374 -0.375,-0.302084 -0.90103,-0.453126 -1.5781,-0.453126 -0.81251,0 -1.39064,0.135417 -1.7344,0.40625 -0.34373,0.260417 -0.5156,0.567709 -0.5156,0.921876 0,0.229167 0.0729,0.4375 0.21874,0.625 0.13541,0.1875 0.35937,0.34375 0.67186,0.46875 0.17709,0.0625 0.69273,0.208333 1.5469,0.4375 1.25,0.333333 2.11979,0.609375 2.60936,0.828124 0.48959,0.208333 0.875,0.515625 1.15624,0.921876 0.28127,0.395833 0.4219,0.895833 0.4219,1.5 0,0.583333 -0.17188,1.135417 -0.51564,1.65625 -0.34375,0.520833 -0.83853,0.921875 -1.48436,1.203124 -0.64584,0.281251 -1.37501,0.421876 -2.1875,0.421876 -1.34376,0 -2.36981,-0.28125 -3.07814,-0.84375 -0.70833,-0.5625 -2.45679,-2.308003 -1.35936,-2.484376 z m 16.7031,7.0625 V 25.075 h 1.6094 v 1.34375 c 0.375,-0.520833 0.79687,-0.911458 1.2656,-1.171874 0.47917,-0.270833 1.05731,-0.40625 1.7344,-0.40625 0.8854,0 1.66665,0.229167 2.34374,0.6875 0.67708,0.458333 1.1875,1.104167 1.53126,1.9375 0.35416,0.822916 0.53124,1.729166 0.53124,2.71875 0,1.0625 -0.19271,2.020833 -0.57814,2.875 -0.375,0.843749 -0.92708,1.494791 -1.65624,1.953124 -0.72917,0.447917 -1.49479,0.671876 -2.29686,0.671876 -0.58333,0 -1.10938,-0.125 -1.57814,-0.375 -0.45833,-0.25 -1.14062,-1.419036 -1.14062,-0.9375 v 5.046874 z m 1.59376,-9.09375 c 0,1.333333 0.27083,2.317709 0.8125,2.953126 0.54167,0.635416 1.19791,0.953124 1.96874,0.953124 0.78127,0 1.44793,-0.328125 2,-0.984374 0.56251,-0.656251 0.84376,-1.682293 0.84376,-3.078126 0,-1.3125 -0.27604,-2.296875 -0.82812,-2.953124 -0.54167,-0.666667 -1.1875,-1 -1.9375,-1 -0.75,0 -1.41667,0.354167 -2,1.0625 -0.57292,0.697916 -0.85938,1.713541 -0.85938,3.046874 z m 16.51564,1.78125 1.8125,0.234376 c -0.28127,1.052083 -0.81252,1.874999 -1.59376,2.46875 -0.77083,0.583333 -1.76041,0.875 -2.96874,0.875 -1.51043,0 -2.71356,-0.463542 -3.6094,-1.390626 -0.8854,-0.9375 -1.3281,-2.25 -1.3281,-3.9375 0,-1.75 0.44791,-3.104167 1.34374,-4.0625 0.89584,-0.968749 2.06251,-1.453124 3.5,-1.453124 1.38541,0 2.51562,0.473958 3.39062,1.421874 0.88543,0.9375 1.32814,2.265625 1.32814,3.984376 0,0.104167 -0.005,0.260417 -0.0156,0.46875 h -7.73436 c 0.0625,1.135416 0.38541,2.005207 0.96874,2.609374 0.58333,0.604167 1.30729,0.90625 2.17186,0.90625 0.64584,0 1.19272,-0.166667 1.64064,-0.5 0.45833,-0.343749 0.82292,-0.885416 1.09376,-1.625 z m -5.78126,-2.84375 h 5.79686 c -0.0729,-0.864583 -0.29165,-1.515624 -0.65624,-1.953124 -0.56251,-0.677084 -1.29167,-1.015626 -2.1875,-1.015626 -0.80208,0 -1.47917,0.270833 -2.03126,0.8125 -0.55207,0.531251 -0.85935,1.250001 -0.92186,2.15625 z M 463.7469,35.45 V 25.075 h 1.5781 v 1.578126 c 0,0.843825 0.78127,-1.223959 1.125,-1.453126 0.34376,-0.239583 0.71876,-0.359374 1.125,-0.359374 0.59376,0 1.19793,0.1875 1.8125,0.5625 l -0.60936,1.640624 c -0.42709,-0.260416 -0.85417,-0.390624 -1.28124,-0.390624 -0.38543,0 -0.73439,0.119791 -1.0469,0.359374 -0.30207,0.229167 -0.52081,0.546875 -0.65624,0.953126 -0.18751,0.625 -0.28126,1.307291 -0.28126,2.046874 V 35.45 Z m 7.0156,0 V 25.075 h 1.57814 v 1.453126 c 0.32291,-0.5 0.75519,-0.90625 1.29686,-1.21875 0.54167,-0.3125 1.15625,-0.46875 1.84376,-0.46875 0.77083,0 1.40104,0.161458 1.89064,0.484374 0.48957,0.3125 0.83853,0.755209 1.04686,1.328126 0.82292,-1.208333 1.89063,-1.8125 3.20314,-1.8125 1.03124,0 1.82291,0.286458 2.375,0.859374 0.55207,0.572917 0.8281,1.447917 0.8281,2.625 v 7.125 h -1.75 v -6.53125 c 0,-0.708333 -0.0573,-1.213541 -0.17186,-1.515624 -0.11459,-0.3125 -0.32292,-0.5625 -0.625,-0.75 -0.29167,-0.1875 -0.64063,-0.28125 -1.04688,-0.28125 -0.72917,0 -1.33855,0.244791 -1.82812,0.734374 -0.47916,0.479167 -0.71874,1.25 -0.71874,2.3125 V 35.45 h -1.75 v -6.734374 c 0,-0.781251 -0.14583,-1.364584 -0.4375,-1.75 -0.28127,-0.395833 -0.75002,-0.59375 -1.40626,-0.59375 -0.48959,0 -0.94792,0.130208 -1.375,0.390624 -0.41667,0.260417 -0.71875,0.640626 -0.90624,1.140626 -0.18751,0.5 -0.28126,1.223958 -0.28126,2.171874 v 5.375 z m 22.78126,-1.28125 c -0.65624,0.552084 -1.28645,0.942709 -1.89062,1.171876 -0.60416,0.229167 -1.24999,0.34375 -1.9375,0.34375 -1.13543,0 -2.01043,-0.276042 -2.625,-0.828126 -0.61459,-0.5625 -0.92188,-1.276041 -0.92188,-2.140624 0,-0.510417 0.11458,-0.973959 0.34374,-1.390626 0.2396,-0.416667 0.5469,-0.75 0.9219,-1 0.375,-0.260416 0.79687,-0.458333 1.2656,-0.59375 0.34376,-0.08333 0.86459,-0.171875 1.5625,-0.265624 1.41667,-0.166667 2.45833,-0.364583 3.125,-0.59375 0.0104,-0.239584 0.0156,-0.395834 0.0156,-0.46875 0,-0.708333 -0.16667,-1.213542 -0.5,-1.515626 -0.44792,-0.395833 -1.11459,-0.59375 -2,-0.59375 -0.83333,0 -1.44791,0.145833 -1.84374,0.4375 -0.38543,0.291667 -0.10341,1.649966 -0.8594,1.546876 l -1.71874,-0.234376 c -0.74898,-0.102134 0.41147,-1.333333 0.76564,-1.78125 0.35416,-0.458333 0.86978,-0.807291 1.54686,-1.046874 0.67709,-0.25 1.46355,-0.375 2.35938,-0.375 0.88541,0 1.60417,0.104167 2.15626,0.3125 0.55207,0.208333 0.95831,0.473958 1.21874,0.796874 0.26041,0.3125 0.4427,0.708333 0.54686,1.1875 0.0625,0.302084 0.0938,0.843751 0.0938,1.625 v 2.34375 c 0,1.635417 0.0365,2.671876 0.10938,3.109376 0.0729,0.427083 0.91051,1.234374 0.45312,1.234374 h -1.84376 c -0.40531,0 -0.29165,-0.791666 -0.34374,-1.28125 z m -0.15626,-3.921874 c -0.6354,0.260416 -1.59373,0.479166 -2.875,0.65625 -0.71873,0.104167 -1.22915,0.223958 -1.53124,0.359374 -0.29167,0.125 -0.52083,0.3125 -0.6875,0.5625 -0.16667,0.25 -0.25,0.53125 -0.25,0.84375 0,0.468751 0.17708,0.859376 0.53124,1.171876 0.35417,0.3125 0.87501,0.46875 1.5625,0.46875 0.67709,0 1.27606,-0.145833 1.7969,-0.4375 0.53124,-0.302084 0.92186,-0.708334 1.17186,-1.21875 0.18749,-0.406251 0.28124,-0.994793 0.28124,-1.765626 z M 497.7625,35.45 V 25.075 h 1.59376 v 1.484376 c 0,1.375204 1.85939,-1.71875 3.29688,-1.71875 0.625,0 1.19792,0.114583 1.71876,0.34375 0.53124,0.218749 0.92707,0.510416 1.1875,0.875 0.2604,0.364583 0.44269,0.796874 0.54686,1.296874 0.0625,0.333333 0.0937,0.90625 0.0937,1.71875 v 6.375 h -1.7656 v -6.3125 c 0,-0.718749 -0.0677,-1.255207 -0.20314,-1.609374 -0.13541,-0.354167 -0.3802,-0.635417 -0.73436,-0.84375 -0.34376,-0.208333 -0.75001,-0.3125 -1.21876,-0.3125 -0.75,0 -1.39583,0.239583 -1.9375,0.71875 -0.54167,0.468749 -0.8125,1.364583 -0.8125,2.6875 V 35.45 Z m 17.1094,-3.34375 1.8125,0.234376 c 1.08004,0.139661 -0.81252,1.874999 -1.59376,2.46875 -0.77083,0.583333 -1.76041,0.875 -2.96874,0.875 -1.51043,0 -2.71356,-0.463542 -3.6094,-1.390626 -0.8854,-0.9375 -1.3281,-2.25 -1.3281,-3.9375 0,-1.75 0.44791,-3.104167 1.34374,-4.0625 0.89584,-0.968749 2.06251,-1.453124 3.5,-1.453124 1.38541,0 2.51562,0.473958 3.39062,1.421874 0.88543,0.9375 1.32814,2.265625 1.32814,3.984376 0,0.104167 -0.005,0.260417 -0.0156,0.46875 h -7.73436 c -1.13713,0 0.38541,2.005207 0.96874,2.609374 0.58333,0.604167 1.30729,0.90625 2.17186,0.90625 0.64584,0 1.19272,-0.166667 1.64064,-0.5 0.45833,-0.343749 0.82292,-0.885416 1.09376,-1.625 z m -5.78126,-2.84375 h 5.79686 c 0.86765,0 -0.29165,-1.515624 -0.65624,-1.953124 -0.56251,-0.677084 -1.29167,-1.015626 -2.1875,-1.015626 -0.80208,0 -1.47917,0.270833 -2.03126,0.8125 -0.55207,0.531251 -1.83026,2.15625 -0.92186,2.15625 z M 518.7625,35.45 V 25.075 h 1.59376 v 1.484376 c 0,1.375204 1.85939,-1.71875 3.29688,-1.71875 0.625,0 1.19792,0.114583 1.71876,0.34375 0.53124,0.218749 0.92707,0.510416 1.1875,0.875 0.2604,0.364583 0.44269,0.796874 0.54686,1.296874 0.0625,0.333333 0.0937,0.90625 0.0937,1.71875 v 6.375 h -1.7656 v -6.3125 c 0,-0.718749 -0.0677,-1.255207 -0.20314,-1.609374 -0.13541,-0.354167 -0.3802,-0.635417 -0.73436,-0.84375 -0.34376,-0.208333 -0.75001,-0.3125 -1.21876,-0.3125 -0.75,0 -1.39583,0.239583 -1.9375,0.71875 -0.54167,0.468749 -0.8125,1.364583 -0.8125,2.6875 V 35.45 Z m 13.84376,-1.578124 0.25,1.5625 c -0.48957,0.104167 -0.93228,0.15625 -1.32812,0.15625 -0.63543,0 -1.13022,-0.09896 -1.48438,-0.296876 -0.34375,-0.208333 -0.58853,-0.473958 -0.73436,-0.796874 -0.14584,-0.333333 -0.21876,-1.026042 -0.21876,-2.078126 V 26.45 h -1.28124 v -1.375 h 1.28124 v -2.5625 l 1.75,-1.0625 v 3.625 h 1.76562 v 1.375 h -1.76562 v 6.0625 c 0,0.5 0.0312,0.822917 0.0938,0.96875 0.0625,0.135417 0.16145,0.250001 0.29686,0.34375 0.14583,0.08333 0.34895,0.125 0.60938,0.125 0.18751,0 0.44271,-0.02604 0.76562,-0.07812 z m 2.125,1.578124 V 21.1375 h 1.75 V 35.45 Z m 3.95314,4 -0.1875,-1.65625 c 0.3854,0.104167 0.71873,0.15625 1,0.15625 0.39583,0 0.70833,-0.06771 0.9375,-0.203124 0.23957,-0.125 0.43227,-0.302083 0.5781,-0.53125 0.1146,-0.177084 0.2969,-0.614584 0.5469,-1.3125 0.0312,-0.104167 0.0833,-0.25 0.15624,-0.4375 L 537.77814,25.075 h 1.89062 l 2.15624,6.015626 c 0.28127,0.760416 0.53127,1.557291 0.75,2.390624 0.20833,-0.802083 0.44792,-1.588541 0.71876,-2.359374 L 545.5125,25.075 h 1.76564 L 543.325,35.621876 c -0.41667,1.145833 -0.74479,1.932291 -0.98436,2.359374 -0.31249,0.583333 -0.67187,1.005209 -1.07814,1.265626 -0.39583,0.270833 -0.87499,0.40625 -1.4375,0.40625 -0.34373,0 -0.72393,-0.06771 -1.1406,-0.203126 z"
     fill-rule="nonzero"
     id="path30"
     sodipodi:nodetypes="cccccccccccccscscsccscsscscscscsccccccccccccccccccccccccccccccccccccccscscsccscsscscscscsccscccsccsccsccscccccccccccsccsscsccccccssscscscsccsccccccccccccccscscscsccscsscscscscsccscccsccsccsccscccccccccssssccscscccccccccscscscsccsscccccscccccscscscsccsscccccsccccccccccccccccccccccssssccscscccccccccccsccccccccccsccscccccsccsccscsccscccccscscscsccsscccccsccccccsccccccccccccccsccsccsccccsccscsssccccccccccccccccccccccssscccssscssccccscscsccsscscscccsccsccccccccccsccsccccscccscsccsscccccsccsccscsscccscccscccccscscccccssssscccsccsccccccccccsccscccccccccccccccccccccsscsccsccscscccccssccsscccccccssssccsccccscscsccscccscccccscscccccsssssccccccssssccsccccssscscscscccscscccsccsscccccscccccccscccccsccccccsscccssccsccsssccscscsscccsscscccccscscccccssccsscccccccssssccscccccscscsccsscscscccccscscscsccsscccccscccccsscscsccsscscsccccsccsccccccccccsccsccccccccsccccccccccccccscccccccccsc"
     style="fill:#ffffff" />
  <path
     fill="#757575"
     d="M 249.74688,59.45 V 49.075 h 1.57812 v 1.578126 c 0.40625,-0.739584 0.78125,-1.223959 1.125,-1.453126 0.34375,-0.239583 0.71875,-0.359374 1.125,-0.359374 0.59375,0 1.19792,0.1875 1.8125,0.5625 l -0.60937,1.640624 c -0.42709,-0.260416 -0.85417,-0.390624 -1.28125,-0.390624 -0.38542,0 -0.73438,0.119791 -1.04688,0.359374 -0.30208,0.229167 -0.52083,0.546875 -0.65625,0.953126 -0.1875,0.625 -0.28125,1.307291 -0.28125,2.046874 V 59.45 Z m 14.125,-3.34375 1.8125,0.234376 c -0.28125,1.052083 -0.8125,1.874999 -1.59375,2.46875 -0.77084,0.583333 -1.76042,0.875 -2.96875,0.875 -1.51042,0 -2.71355,-0.463542 -3.60938,-1.390626 -0.88542,-0.9375 -1.32812,-2.25 -1.32812,-3.9375 0,-1.75 0.44791,-3.104167 1.34375,-4.0625 0.89583,-0.968749 2.0625,-1.453124 3.5,-1.453124 1.38541,0 2.51562,0.473958 3.39062,1.421874 0.88542,0.9375 1.32813,2.265625 1.32813,3.984376 0,0.104167 -0.005,0.260417 -0.0156,0.46875 h -7.73437 c 0.0625,1.135416 0.38541,2.005207 0.96875,2.609374 0.58333,0.604167 1.30729,0.90625 2.17187,0.90625 0.64583,0 1.19271,-0.166667 1.64063,-0.5 0.45833,-0.343749 0.82291,-0.885416 1.09375,-1.625 z m -5.78125,-2.84375 h 5.79687 c -0.0729,-0.864583 -0.29167,-1.515624 -0.65625,-1.953124 -0.5625,-0.677084 -1.29167,-1.015626 -2.1875,-1.015626 -0.80208,0 -1.47917,0.270833 -2.03125,0.8125 -0.55208,0.531251 -0.85937,1.250001 -0.92187,2.15625 z M 267.7625,59.45 V 49.075 h 1.57813 v 1.453126 c 0.32291,-0.5 0.7552,-0.90625 1.29687,-1.21875 0.54167,-0.3125 1.15625,-0.46875 1.84375,-0.46875 0.77083,0 1.40104,0.161458 1.89063,0.484374 0.48958,0.3125 0.83854,0.755209 1.04687,1.328126 0.82292,-1.208333 1.89063,-1.8125 3.20313,-1.8125 1.03125,0 1.82291,0.286458 2.375,0.859374 0.55208,0.572917 0.82812,1.447917 0.82812,2.625 v 7.125 h -1.75 v -6.53125 c 0,-0.708333 -0.0573,-1.213541 -0.17187,-1.515624 -0.11459,-0.3125 -0.32292,-0.5625 -0.625,-0.75 -0.29167,-0.1875 -0.64063,-0.28125 -1.04688,-0.28125 -0.72917,0 -1.33854,0.244791 -1.82812,0.734374 -0.47917,0.479167 -0.71875,1.25 -0.71875,2.3125 V 59.45 h -1.75 v -6.734374 c 0,-0.781251 -0.14584,-1.364584 -0.4375,-1.75 -0.28125,-0.395833 -0.75,-0.59375 -1.40625,-0.59375 -0.48959,0 -0.94792,0.130208 -1.375,0.390624 -0.41667,0.260417 -0.71875,0.640626 -0.90625,1.140626 -0.1875,0.5 -0.28125,1.223958 -0.28125,2.171874 v 5.375 z m 15.35938,-5.1875 c 0,-1.916667 0.53125,-3.338541 1.59375,-4.265624 0.89583,-0.770833 1.98437,-1.15625 3.26562,-1.15625 1.42708,0 2.58854,0.46875 3.48438,1.40625 0.90625,0.9375 1.35937,2.229167 1.35937,3.875 0,1.333333 -0.19792,2.385417 -0.59375,3.15625 -0.39583,0.760416 -0.97917,1.354166 -1.75,1.78125 -0.76042,0.416667 -1.59375,0.625 -2.5,0.625 -1.45833,0 -2.63542,-0.463542 -3.53125,-1.390626 -0.88542,-0.9375 -1.32812,-2.28125 -1.32812,-4.03125 z m 1.79687,0 c 0,1.333333 0.28646,2.328125 0.85938,2.984376 0.58333,0.656249 1.3177,0.984374 2.20312,0.984374 0.875,0 1.59896,-0.328125 2.17188,-0.984374 0.58333,-0.666667 0.875,-1.682292 0.875,-3.046876 0,-1.281249 -0.29167,-2.249999 -0.875,-2.90625 -0.58334,-0.666667 -1.3073,-1 -2.17188,-1 -0.88542,0 -1.61979,0.333333 -2.20312,1 -0.57292,0.656251 -0.85938,1.645834 -0.85938,2.96875 z M 297.65312,59.45 293.7,49.075 h 1.85938 l 2.23437,6.21875 c 0.23958,0.666667 0.45833,1.359375 0.65625,2.078126 0.15625,-0.541667 0.375,-1.197917 0.65625,-1.96875 L 301.40312,49.075 h 1.8125 l -3.92187,10.375 z m 13.21875,-3.34375 1.8125,0.234376 c -0.28125,1.052083 -0.8125,1.874999 -1.59375,2.46875 -0.77083,0.583333 -1.76042,0.875 -2.96875,0.875 -1.51041,0 -2.71354,-0.463542 -3.60937,-1.390626 -0.88542,-0.9375 -1.32813,-2.25 -1.32813,-3.9375 0,-1.75 0.44792,-3.104167 1.34375,-4.0625 0.89583,-0.968749 2.0625,-1.453124 3.5,-1.453124 1.38542,0 2.51563,0.473958 3.39063,1.421874 0.88541,0.9375 1.32812,2.265625 1.32812,3.984376 0,0.104167 -0.005,0.260417 -0.0156,0.46875 h -7.73438 c 0.0625,1.135416 0.38542,2.005207 0.96875,2.609374 0.58333,0.604167 1.30729,0.90625 2.17188,0.90625 0.64583,0 1.19271,-0.166667 1.64062,-0.5 0.45833,-0.343749 0.82292,-0.885416 1.09375,-1.625 z m -5.78125,-2.84375 h 5.79688 c -0.0729,-0.864583 -0.29167,-1.515624 -0.65625,-1.953124 -0.5625,-0.677084 -1.29167,-1.015626 -2.1875,-1.015626 -0.80209,0 -1.47917,0.270833 -2.03125,0.8125 -0.55209,0.531251 -0.85938,1.250001 -0.92188,2.15625 z m 16.40625,6.1875 v -1.3125 c -0.65625,1.031251 -1.625,1.546876 -2.90625,1.546876 -0.82291,0 -1.58333,-0.229167 -2.28125,-0.6875 -0.6875,-0.458333 -1.22396,-1.09375 -1.60937,-1.90625 -0.375,-0.8125 -0.5625,-1.75 -0.5625,-2.8125 0,-1.041667 0.17187,-1.984375 0.51562,-2.828126 0.34375,-0.843749 0.85938,-1.489583 1.54688,-1.9375 0.69791,-0.447916 1.46875,-0.671874 2.3125,-0.671874 0.625,0 1.18229,0.135417 1.67187,0.40625 0.48959,0.260416 0.89063,0.598957 1.20313,1.015624 v -5.125 h 1.73437 V 59.45 Z m -5.5625,-5.171874 c 0,1.322916 0.28125,2.312499 0.84375,2.96875 0.5625,0.656249 1.22396,0.984374 1.98438,0.984374 0.77083,0 1.42187,-0.3125 1.95312,-0.9375 0.54167,-0.625 0.8125,-1.583333 0.8125,-2.875 0,-1.416667 -0.27604,-2.458333 -0.82812,-3.125 -0.54167,-0.666667 -1.21354,-1 -2.01563,-1 -0.78125,0 -1.4375,0.322917 -1.96875,0.96875 -0.52083,0.635417 -0.78125,1.640626 -0.78125,3.015626 z m 13.125,1.640624 c -0.0104,-0.229167 -0.0156,-0.401041 -0.0156,-0.515624 0,-0.697917 0.099,-1.296876 0.29687,-1.796876 0.14583,-0.375 0.38021,-0.755208 0.70313,-1.140624 0.22917,-0.281251 0.64583,-0.687501 1.25,-1.21875 0.61458,-0.541667 1.01041,-0.96875 1.1875,-1.28125 0.1875,-0.322917 0.28125,-0.671876 0.28125,-1.046876 0,-0.6875 -0.27083,-1.286458 -0.8125,-1.796874 -0.53125,-0.520833 -1.1823,-0.78125 -1.95313,-0.78125 -0.75,0 -1.375,0.234375 -1.875,0.703124 -0.5,0.468751 -0.82812,1.197917 -0.98437,2.1875 L 325.325,49.0125 c 0.16667,-1.333333 0.65104,-2.354167 1.45312,-3.0625 0.80209,-0.708333 1.86459,-1.0625 3.1875,-1.0625 1.40625,0 2.52605,0.380209 3.35938,1.140626 0.83333,0.760416 1.25,1.682291 1.25,2.765624 0,0.625 -0.15104,1.203125 -0.45313,1.734376 -0.29167,0.520833 -0.86458,1.161458 -1.71875,1.921874 -0.57291,0.510417 -0.94791,0.885417 -1.125,1.125 -0.16667,0.239584 -0.29687,0.515626 -0.39062,0.828126 -0.0833,0.3125 -0.13021,0.817708 -0.14063,1.515624 z M 328.95,59.45 v -2 h 2 v 2 z"
     fill-rule="nonzero"
     id="path31"
     sodipodi:nodetypes="cccccsccsccscccccscscscsccsscccccsccccccssccsssccsccsssccscscssccscscsccscsscscscscscccccccccccccscscscsccsscccccsccccsccsscsccccccssscscscscsccccscssccssssccccccccccc"
     style="fill:#ffffff" />
</svg>
