<?xml version="1.0" encoding="UTF-8" standalone="no"?>
<svg
   version="1.1"
   viewBox="0 0 562.90002 337.11151"
   fill="none"
   stroke="none"
   stroke-linecap="square"
   stroke-miterlimit="10"
   width="562.90002"
   height="337.11151"
   id="svg15"
   sodipodi:docname="Do you think MCAS is just a waste of time for both students and or teachers .svg"
   inkscape:export-filename="../Documents/code/civicsprojet/src/lib/images/wasteoftime.svg"
   inkscape:export-xdpi="96"
   inkscape:export-ydpi="96"
   xmlns:inkscape="http://www.inkscape.org/namespaces/inkscape"
   xmlns:sodipodi="http://sodipodi.sourceforge.net/DTD/sodipodi-0.dtd"
   xmlns="http://www.w3.org/2000/svg"
   xmlns:svg="http://www.w3.org/2000/svg">
  <defs
     id="defs15" />
  <sodipodi:namedview
     id="namedview15"
     pagecolor="#505050"
     bordercolor="#ffffff"
     borderopacity="1"
     inkscape:showpageshadow="0"
     inkscape:pageopacity="0"
     inkscape:pagecheckerboard="1"
     inkscape:deskcolor="#505050"
     inkscape:zoom="1.4383333"
     inkscape:cx="300"
     inkscape:cy="241.25145"
     inkscape:window-width="1920"
     inkscape:window-height="967"
     inkscape:window-x="1920"
     inkscape:window-y="91"
     inkscape:window-maximized="1"
     inkscape:current-layer="svg15" />
  <path
     fill="#4285f4"
     d="m 281.45,63.063464 c 41.62146,0 80.97794,18.953072 106.9285,51.494036 25.95056,32.54099 35.67077,75.12815 26.40915,115.70608 L 281.45,199.83013 Z"
     fill-rule="nonzero"
     id="path2" />
  <path
     fill="#ea4335"
     d="M 414.78765,230.26358 C 398.862,300.03846 331.8359,345.73606 261.066,335.06922 190.29607,324.40238 139.71738,260.9787 145.06575,189.60955 150.41414,118.24038 209.88073,63.063464 281.45,63.063464 V 199.83013 Z"
     fill-rule="nonzero"
     id="path3" />
  <path
     stroke="#e3e2e4"
     stroke-width="1"
     stroke-linejoin="round"
     stroke-linecap="round"
     d="M 281.45,199.83013 V 63.063464 c 41.62146,0 80.97794,18.953072 106.9285,51.494036 25.95056,32.54099 35.67077,75.12815 26.40915,115.70608"
     fill-rule="nonzero"
     id="path4" />
  <path
     stroke="#e3e2e4"
     stroke-width="1"
     stroke-linejoin="round"
     stroke-linecap="round"
     d="m 281.45,199.83013 133.33765,30.43345 C 398.862,300.03846 331.8359,345.73606 261.066,335.06922 190.29607,324.40238 139.71738,260.9787 145.06575,189.60955 150.41414,118.24038 209.88073,63.063464 281.45,63.063464"
     fill-rule="nonzero"
     id="path5" />
  <path
     fill="#ffffff"
     d="m 4.4687508,275.33912 v -4.85937 L 0.04687476,263.886 H 1.8906248 l 2.265626,3.45312 q 0.625,0.96875 1.15625,1.9375 0.515624,-0.90625 1.25,-2.03125 l 2.21875,-3.35937 h 1.7656242 l -4.5625002,6.59375 v 4.85937 z m 11.2656242,-2.67187 1.453126,0.17187 q -0.34375,1.28125 -1.28125,1.98438 -0.921876,0.70312 -2.359376,0.70312 -1.828124,0 -2.890624,-1.125 -1.0625002,-1.125 -1.0625002,-3.14062 0,-2.09375 1.0781242,-3.25 1.078126,-1.15625 2.796876,-1.15625 1.65625,0 2.703124,1.14062 1.0625,1.125 1.0625,3.17188 0,0.125 0,0.375 h -6.1875 q 0.07813,1.375 0.765626,2.10937 0.703124,0.71875 1.734374,0.71875 0.78125,0 1.328126,-0.40625 0.546874,-0.40625 0.859374,-1.29687 z M 11.125001,270.386 h 4.625 q -0.09375,-1.04688 -0.53125,-1.5625 -0.671876,-0.8125 -1.734376,-0.8125 -0.96875,0 -1.640624,0.65625 -0.65625,0.64062 -0.71875,1.71875 z m 7.375,2.46875 1.390624,-0.21875 q 0.109376,0.84375 0.640626,1.29687 0.546874,0.4375 1.5,0.4375 0.96875,0 1.4375,-0.39062 0.46875,-0.40625 0.46875,-0.9375 0,-0.46875 -0.40625,-0.75 -0.296876,-0.1875 -1.4375,-0.46875 -1.546876,-0.39063 -2.15625,-0.67188 -0.59375,-0.29687 -0.90625,-0.79687 -0.296876,-0.5 -0.296876,-1.10938 0,-0.5625 0.25,-1.03125 0.25,-0.46875 0.6875,-0.78125 0.328126,-0.25 0.890626,-0.40625 0.578124,-0.17187 1.21875,-0.17187 0.984374,0 1.71875,0.28125 0.734374,0.28125 1.078124,0.76562 0.359376,0.46875 0.5,1.28125 l -1.375,0.1875 q -0.09375,-0.64062 -0.546874,-1 -0.453126,-0.35937 -1.265626,-0.35937 -0.96875,0 -1.390624,0.32812 -0.40625,0.3125 -0.40625,0.73438 0,0.28125 0.171874,0.5 0.171876,0.21875 0.53125,0.375 0.21875,0.0781 1.25,0.35937 1.484376,0.39063 2.078126,0.65625 0.59375,0.25 0.921874,0.73438 0.34375,0.48437 0.34375,1.20312 0,0.70313 -0.421874,1.32813 -0.40625,0.60937 -1.1875,0.95312 -0.765626,0.34375 -1.734376,0.34375 -1.625,0 -2.46875,-0.67187 -0.84375,-0.67188 -1.078124,-2 z"
     fill-rule="nonzero"
     id="path6" />
  <path
     fill="#8e8d8e"
     d="m 0.76562476,287.386 v -1.35938 H 8.1718748 v 1.09375 q -1.09375,1.17188 -2.171874,3.10938 -1.0625,1.92187 -1.65625,3.95312 -0.421876,1.4375 -0.53125,3.15625 h -1.453126 q 0.03125,-1.35937 0.53125,-3.26562 0.515626,-1.92188 1.453126,-3.6875 0.953124,-1.78125 2.03125,-3 z m 14.20312624,9.95312 h -1.40625 v -8.96875 q -0.515626,0.48438 -1.34375,0.96875 -0.8125,0.48438 -1.46875,0.73438 v -1.35938 q 1.171874,-0.5625 2.046874,-1.34375 0.890626,-0.79687 1.265626,-1.53125 h 0.90625 z m 4.484374,0 v -1.60937 h 1.609376 v 1.60937 z m 7.71875,0 v -2.75 h -4.96875 v -1.28125 l 5.234376,-7.42187 h 1.140624 v 7.42187 h 1.546876 v 1.28125 h -1.546876 v 2.75 z m 0,-4.03125 V 288.136 l -3.578124,5.17187 z m 4.765626,-4.67187 q 0,-1.23438 0.609374,-2.09375 0.625,-0.85938 1.796876,-0.85938 1.078124,0 1.78125,0.78125 0.703124,0.76563 0.703124,2.25 0,1.45313 -0.71875,2.25 -0.703124,0.78125 -1.75,0.78125 -1.046874,0 -1.734374,-0.76562 -0.6875,-0.78125 -0.6875,-2.34375 z m 2.4375,-1.98438 q -0.515626,0 -0.875,0.45313 -0.34375,0.45312 -0.34375,1.67187 0,1.09375 0.34375,1.54688 0.359374,0.45312 0.875,0.45312 0.53125,0 0.875,-0.45312 0.359374,-0.45313 0.359374,-1.65625 0,-1.10938 -0.359374,-1.5625 -0.34375,-0.45313 -0.875,-0.45313 z m 0.01562,11.10938 6.265626,-12.07813 h 1.140624 l -6.25,12.07813 z m 4.953126,-3.10938 q 0,-1.23437 0.609374,-2.09375 0.625,-0.85937 1.796876,-0.85937 1.078124,0 1.78125,0.78125 0.71875,0.76562 0.71875,2.25 0,1.45312 -0.71875,2.25 -0.71875,0.78125 -1.765626,0.78125 -1.046874,0 -1.734374,-0.78125 -0.6875,-0.78125 -0.6875,-2.32813 z m 2.453124,-1.98437 q -0.53125,0 -0.890624,0.45312 -0.34375,0.45313 -0.34375,1.67188 0,1.09375 0.34375,1.54687 0.359374,0.45313 0.875,0.45313 0.546874,0 0.890624,-0.45313 0.34375,-0.45312 0.34375,-1.65625 0,-1.10937 -0.359374,-1.5625 -0.34375,-0.45312 -0.859376,-0.45312 z"
     fill-rule="nonzero"
     id="path7" />
  <path
     stroke="#b7b6b7"
     stroke-width="1"
     stroke-linecap="butt"
     d="M 7.6293945e-7,280.83912 H 138.68334 h 41.1846"
     fill-rule="nonzero"
     id="path8" />
  <path
     fill="#8e8d8e"
     d="m 181.86794,280.83912 c 0,-1.10455 -0.89544,-2 -2,-2 -1.10457,0 -2,0.89545 -2,2 0,1.10458 0.89543,2 2,2 1.10456,0 2,-0.89542 2,-2"
     fill-rule="nonzero"
     id="path9" />
  <path
     fill="#ffffff"
     d="m 544.11876,113.32115 v -11.45313 h 1.5625 l 6.01564,8.98438 v -8.98438 h 1.4531 v 11.45313 h -1.5625 l -6.0156,-9 v 9 z m 10.3125,-4.15625 q 0,-2.29688 1.28124,-3.40625 1.07814,-0.92188 2.6094,-0.92188 1.71874,0 2.79686,1.125 1.09374,1.10938 1.09374,3.09375 0,1.59375 -0.48436,2.51563 -0.48438,0.92187 -1.40624,1.4375 -0.90626,0.5 -2,0.5 -1.7344,0 -2.8125,-1.10938 -1.07814,-1.125 -1.07814,-3.23437 z m 1.45314,0 q 0,1.59375 0.6875,2.39062 0.7031,0.79688 1.75,0.79688 1.04686,0 1.73436,-0.79688 0.70314,-0.79687 0.70314,-2.4375 0,-1.53125 -0.70314,-2.32812 -0.6875,-0.79688 -1.73436,-0.79688 -1.0469,0 -1.75,0.79688 -0.6875,0.78125 -0.6875,2.375 z"
     fill-rule="nonzero"
     id="path10" />
  <path
     fill="#8e8d8e"
     d="m 525.9625,133.96177 v 1.35938 h -7.5781 q -0.0156,-0.51563 0.17186,-0.98438 0.28124,-0.76562 0.92188,-1.51562 0.64062,-0.75 1.84376,-1.73438 1.85936,-1.53125 2.5156,-2.42187 0.65626,-0.90625 0.65626,-1.70313 0,-0.82812 -0.59376,-1.40625 -0.59374,-0.57812 -1.5625,-0.57812 -1.0156,0 -1.625,0.60937 -0.60936,0.60938 -0.60936,1.6875 L 518.65,127.13365 q 0.15626,-1.625 1.125,-2.46875 0.96876,-0.84375 2.59376,-0.84375 1.65624,0 2.60938,0.92187 0.96876,0.90625 0.96876,2.25 0,0.6875 -0.28126,1.35938 -0.28124,0.65625 -0.9375,1.39062 -0.65624,0.73438 -2.17188,2.01563 -1.26562,1.0625 -1.625,1.45312 -0.35936,0.375 -0.59376,0.75 z m 3.76564,-4.85937 q -0.875,-0.3125 -1.29688,-0.90625 -0.42186,-0.59375 -0.42186,-1.42188 0,-1.25 0.8906,-2.09375 0.90626,-0.85937 2.40626,-0.85937 1.5,0 2.40624,0.875 0.9219,0.85937 0.9219,2.10937 0,0.79688 -0.4219,1.39063 -0.42186,0.59375 -1.2656,0.90625 1.04686,0.34375 1.59374,1.10937 0.5625,0.76563 0.5625,1.82813 0,1.46875 -1.04688,2.48437 -1.03126,1 -2.73436,1 -1.6875,0 -2.7344,-1 -1.03124,-1.01562 -1.03124,-2.51562 0,-1.125 0.5625,-1.875 0.5625,-0.75 1.60938,-1.03125 z m -0.28124,-2.375 q 0,0.8125 0.5156,1.32812 0.53126,0.51563 1.375,0.51563 0.8125,0 1.32814,-0.51563 0.51562,-0.51562 0.51562,-1.25 0,-0.78125 -0.53126,-1.29687 -0.53124,-0.53125 -1.3281,-0.53125 -0.8125,0 -1.34376,0.51562 -0.53124,0.51563 -0.53124,1.23438 z m -0.45314,5.28125 q 0,0.60937 0.28124,1.17187 0.2969,0.5625 0.8594,0.875 0.5625,0.29688 1.2031,0.29688 1.01564,0 1.6719,-0.64063 0.65624,-0.65625 0.65624,-1.65625 0,-1.01562 -0.6875,-1.67187 -0.67188,-0.67188 -1.6875,-0.67188 -0.98438,0 -1.64064,0.65625 -0.65624,0.65625 -0.65624,1.64063 z m 8.35938,3.3125 v -1.60938 h 1.60936 v 1.60938 z m 10.51562,-8.65625 -1.40626,0.10937 q -0.1875,-0.82812 -0.53124,-1.20312 -0.5625,-0.59375 -1.40626,-0.59375 -0.67186,0 -1.17186,0.375 -0.67188,0.48437 -1.0625,1.42187 -0.375,0.92188 -0.39064,2.64063 0.51564,-0.78125 1.25,-1.15625 0.7344,-0.375 1.53126,-0.375 1.40624,0 2.39064,1.04687 1,1.03125 1,2.67188 0,1.07812 -0.46876,2 -0.46874,0.92187 -1.28124,1.42187 -0.8125,0.5 -1.84376,0.5 -1.75,0 -2.85938,-1.29687 -1.10936,-1.29688 -1.10936,-4.26563 0,-3.32812 1.21874,-4.82812 1.07812,-1.3125 2.89062,-1.3125 1.34374,0 2.20314,0.76562 0.875,0.75 1.04686,2.07813 z m -5.75,4.9375 q 0,0.73437 0.3125,1.40625 0.3125,0.65625 0.85938,1 0.5625,0.34375 1.17186,0.34375 0.89064,0 1.53126,-0.71875 0.64064,-0.71875 0.64064,-1.95313 0,-1.1875 -0.64064,-1.85937 -0.625,-0.6875 -1.59376,-0.6875 -0.9531,0 -1.625,0.6875 -0.65624,0.67187 -0.65624,1.78125 z m 7.71874,-4.98438 q 0,-1.23437 0.6094,-2.09375 0.625,-0.85937 1.79686,-0.85937 1.07814,0 1.78124,0.78125 0.70314,0.76562 0.70314,2.25 0,1.45312 -0.71874,2.25 -0.70314,0.78125 -1.75,0.78125 -1.0469,0 -1.7344,-0.76563 -0.6875,-0.78125 -0.6875,-2.34375 z m 2.4375,-1.98437 q -0.5156,0 -0.875,0.45312 -0.34374,0.45313 -0.34374,1.67188 0,1.09375 0.34374,1.54687 0.3594,0.45313 0.875,0.45313 0.53126,0 0.875,-0.45313 0.3594,-0.45312 0.3594,-1.65625 0,-1.10937 -0.3594,-1.5625 -0.34374,-0.45312 -0.875,-0.45312 z m 0.0156,11.10937 6.26562,-12.07812 h 1.14064 l -6.25,12.07812 z m 4.95312,-3.10937 q 0,-1.23438 0.60938,-2.09375 0.625,-0.85938 1.79686,-0.85938 1.07814,0 1.78126,0.78125 0.71874,0.76563 0.71874,2.25 0,1.45313 -0.71874,2.25 -0.71876,0.78125 -1.76562,0.78125 -1.04688,0 -1.73438,-0.78125 -0.6875,-0.78125 -0.6875,-2.32812 z m 2.45314,-1.98438 q -0.53126,0 -0.89064,0.45313 -0.34376,0.45312 -0.34376,1.67187 0,1.09375 0.34376,1.54688 0.35938,0.45312 0.875,0.45312 0.54688,0 0.89064,-0.45312 0.34374,-0.45313 0.34374,-1.65625 0,-1.10938 -0.35938,-1.5625 -0.34376,-0.45313 -0.85936,-0.45313 z"
     fill-rule="nonzero"
     id="path11" />
  <path
     stroke="#b7b6b7"
     stroke-width="1"
     stroke-linecap="butt"
     d="M 562.9,118.82115 H 424.21666 383.03206"
     fill-rule="nonzero"
     id="path12" />
  <path
     fill="#8e8d8e"
     d="m 385.03206,118.82115 c 0,-1.10457 -0.89541,-2 -2,-2 -1.10458,0 -2,0.89543 -2,2 0,1.10457 0.89542,2 2,2 1.10459,0 2,-0.89543 2,-2"
     fill-rule="nonzero"
     id="path13" />
  <text
     xml:space="preserve"
     style="font-size:32.8347px;fill:#000000;stroke-width:2.73622"
     x="63.379814"
     y="25.107004"
     id="text15"
     transform="scale(0.75182148,1.330103)"><tspan
       id="tspan15"
       x="63.379814"
       y="25.107004"
       style="fill:#ffffff;stroke-width:2.73622"
       sodipodi:role="line">Do you think MCAS is a waste of time?</tspan></text>
</svg>
